{"glyphs":{"0":{"ha":933,"x_min":26,"x_max":905,"o":"m 26 427 q 167 747 26 614 q 498 879 307 879 q 787 748 665 879 q 905 453 905 621 q 778 137 905 271 q 466 0 648 0 q 161 126 294 0 q 26 427 26 254 m 134 452 q 235 195 134 304 q 474 87 337 87 q 708 199 612 87 q 801 458 801 309 q 688 708 801 608 q 436 788 587 804 q 183 633 286 773 q 134 452 134 538 z "},"1":{"ha":271,"x_min":4,"x_max":253,"o":"m 67 633 q 5 668 22 633 q 4 673 4 669 q 5 679 4 677 q 125 863 115 731 q 161 884 134 884 q 229 856 220 884 q 240 444 231 707 q 253 33 250 144 q 214 5 235 5 q 162 16 178 5 q 153 65 153 28 q 143 363 150 176 l 140 680 q 67 633 94 633 z "},"2":{"ha":833,"x_min":24,"x_max":812,"o":"m 24 54 q 140 155 31 119 l 438 440 q 590 676 590 582 q 430 783 590 772 q 239 682 270 793 q 221 631 233 675 q 184 595 212 595 q 145 663 145 598 q 148 697 145 681 q 245 835 157 788 q 422 873 317 873 q 469 871 438 873 q 602 809 551 862 q 658 659 658 751 q 517 404 658 557 q 398 285 473 356 q 261 152 312 203 q 377 150 321 149 q 491 144 433 152 q 604 136 549 136 q 797 204 675 140 q 812 168 812 201 q 577 39 711 43 l 201 56 q 131 33 178 55 q 60 11 84 11 q 24 54 24 14 z "},"3":{"ha":667,"x_min":27,"x_max":637,"o":"m 115 743 q 152 685 115 714 q 120 679 108 679 q 60 749 60 679 q 123 863 60 843 q 269 889 202 889 q 617 650 607 889 q 587 541 615 597 q 508 460 554 475 q 608 384 584 419 q 637 245 637 340 q 311 0 637 0 q 98 71 183 0 q 27 195 27 132 q 39 253 27 253 q 81 222 62 253 q 319 81 139 92 q 448 116 389 81 q 536 253 536 174 q 519 345 536 321 q 419 400 467 397 q 339 404 371 404 q 228 425 274 404 q 281 496 189 495 q 410 498 372 496 q 496 561 454 505 q 520 652 520 608 q 266 813 534 810 q 156 795 206 813 q 115 743 115 770 z "},"4":{"ha":567,"x_min":19,"x_max":536,"o":"m 400 -52 q 323 -14 336 -52 q 308 207 308 37 q 309 278 308 256 l 291 278 q 31 386 125 278 q 19 479 19 430 q 145 854 19 663 q 170 873 158 873 q 191 847 191 873 q 166 762 191 821 q 102 517 102 630 q 117 415 102 459 q 277 340 212 340 q 305 343 286 340 l 315 684 q 404 892 334 892 q 536 567 536 892 q 517 390 536 440 q 399 294 494 326 q 436 4 406 103 q 437 -5 437 1 q 408 -52 437 -40 l 400 -52 m 397 359 q 472 574 472 374 q 397 806 452 812 q 388 649 388 775 q 397 359 388 477 z "},"5":{"ha":736,"x_min":27,"x_max":709,"o":"m 630 886 q 650 882 644 886 q 690 811 684 857 q 669 801 682 803 q 509 794 639 798 q 363 790 375 791 l 191 789 q 162 618 162 742 q 165 555 162 586 q 353 575 193 575 q 709 288 709 575 q 587 66 709 148 q 385 3 490 3 q 163 58 275 3 q 27 227 27 125 q 59 310 27 280 q 138 339 90 339 q 334 222 250 339 q 313 193 334 205 q 273 182 294 182 q 248 189 255 182 q 105 286 162 286 q 67 229 67 286 q 185 110 67 165 q 341 78 275 78 q 572 176 491 78 q 618 317 618 235 q 302 498 615 531 q 199 482 266 498 q 164 468 188 481 q 132 454 140 455 l 112 453 q 83 463 96 453 q 72 604 72 566 q 85 852 72 687 l 95 861 l 140 869 l 307 874 q 620 886 541 880 l 630 886 z "},"6":{"ha":806,"x_min":31,"x_max":770,"o":"m 455 -37 q 442 -55 455 -37 q 366 14 429 -73 q 231 3 290 -7 q 37 257 67 31 q 35 334 31 307 q 60 479 38 418 q 212 760 100 610 q 475 931 378 927 l 484 930 q 492 913 494 922 q 402 823 490 900 q 140 385 179 612 q 216 90 117 170 q 268 68 241 73 q 341 75 296 64 q 330 281 316 203 q 524 623 365 487 q 675 662 610 673 q 763 563 749 650 q 762 473 770 524 l 760 461 q 452 50 720 227 q 455 -37 481 -1 m 430 307 q 433 119 413 216 l 436 119 q 637 363 583 219 q 672 471 663 420 l 674 479 q 644 572 686 547 l 635 574 q 479 451 564 594 q 430 307 441 370 z "},"7":{"ha":700,"x_min":22,"x_max":680,"o":"m 88 772 q 63 771 82 773 q 33 781 43 770 q 22 806 22 792 q 45 841 22 824 q 92 858 68 858 l 102 858 q 287 863 163 873 q 466 841 410 852 q 570 857 522 829 q 633 876 591 876 q 667 861 652 876 q 680 828 680 847 q 661 765 680 781 q 602 741 640 751 q 378 96 413 467 q 355 37 376 66 q 309 4 333 4 q 251 56 251 4 q 494 748 266 309 q 88 772 346 782 z "},"8":{"ha":692,"x_min":31,"x_max":664,"o":"m 31 249 q 278 469 31 361 q 64 667 64 550 q 149 829 64 765 q 349 892 232 892 q 567 831 475 892 q 661 677 661 768 q 414 473 661 559 q 584 399 534 436 q 664 240 664 341 q 579 73 664 135 q 359 11 496 11 q 121 77 212 11 q 31 249 31 142 m 347 428 q 138 231 138 340 q 196 130 138 172 q 378 81 263 81 q 490 113 435 81 q 559 216 559 153 q 484 358 559 295 q 347 428 446 391 m 312 814 q 238 805 312 814 q 165 667 165 795 q 349 513 165 601 q 557 684 557 609 q 509 781 557 734 q 312 814 458 832 z "},"9":{"ha":602,"x_min":22,"x_max":577,"o":"m 197 -8 q 194 0 194 -7 q 248 83 194 43 q 479 654 444 247 q 419 790 466 754 q 316 836 376 836 q 134 691 165 823 q 138 493 104 559 q 231 425 173 428 q 327 451 288 422 q 393 555 366 479 l 395 566 q 451 599 401 590 q 387 425 443 489 q 211 353 324 353 q 77 423 134 353 q 22 591 22 504 q 121 821 22 728 q 326 905 212 905 q 512 823 441 905 q 577 633 577 747 q 494 289 577 455 q 260 16 408 119 q 197 -8 228 -8 z "}," ":{"ha":345,"x_min":0,"x_max":0,"o":""},"!":{"ha":236,"x_min":48,"x_max":168,"o":"m 168 875 q 138 570 150 808 q 134 346 134 458 q 136 212 134 262 q 94 176 134 176 q 61 201 62 176 l 62 688 q 61 790 62 750 q 76 895 61 824 q 108 924 85 919 q 168 875 157 907 m 101 111 q 137 96 122 111 q 152 59 152 80 q 137 24 152 39 q 102 8 122 8 q 65 22 81 8 q 48 56 48 36 q 101 111 48 111 z "},"\"":{"ha":280,"x_min":18,"x_max":255,"o":"m 123 920 q 79 704 109 819 q 66 700 73 700 q 44 718 50 700 l 18 920 q 73 951 29 951 q 123 920 118 951 m 255 920 q 211 704 241 819 q 198 700 204 700 q 176 718 182 700 l 150 920 q 205 951 161 951 q 255 920 250 951 z "},"#":{"ha":671,"x_min":31,"x_max":643,"o":"m 54 382 q 41 447 31 408 q 71 493 49 479 q 102 498 82 498 l 194 493 l 231 635 q 130 659 175 642 q 96 720 85 673 q 147 774 109 764 l 146 770 q 168 757 145 764 q 259 734 210 742 l 267 760 q 295 878 285 827 q 346 896 302 896 l 367 897 q 382 884 385 897 l 362 799 q 344 732 352 757 q 407 739 363 732 l 443 878 q 500 897 455 897 q 534 880 535 897 l 500 747 q 602 754 562 753 q 618 755 608 755 q 640 750 635 755 q 636 714 643 739 q 598 643 622 653 q 511 650 564 650 l 473 647 l 431 489 q 521 497 474 491 q 545 498 528 498 q 574 479 576 498 q 560 448 568 469 l 547 418 q 518 385 532 385 q 406 382 437 382 q 379 240 389 307 q 378 221 378 224 q 391 215 380 215 q 340 176 367 176 q 300 193 315 176 q 287 233 283 210 q 316 379 300 315 q 245 378 280 378 q 226 239 234 321 q 222 216 223 218 q 187 182 214 182 q 146 199 168 182 q 138 229 136 205 q 164 378 150 314 q 54 382 111 378 m 315 635 l 293 562 q 272 488 279 517 q 326 486 304 486 l 340 486 l 382 642 l 315 635 z "},"$":{"ha":795,"x_min":47,"x_max":751,"o":"m 286 293 q 255 256 286 256 q 233 272 241 256 q 176 319 212 319 l 163 319 q 88 227 88 319 q 302 94 88 134 l 308 475 q 156 519 203 490 q 92 639 92 558 q 312 865 92 804 l 313 933 q 347 953 323 953 l 351 953 q 394 924 387 953 l 393 882 q 466 889 418 886 l 468 911 q 490 945 483 945 q 545 924 541 941 l 544 888 q 705 785 661 874 q 711 762 711 774 q 688 715 711 737 q 647 696 667 696 q 638 697 642 696 q 658 733 658 712 q 642 760 658 751 q 543 787 606 778 l 538 513 q 751 285 751 466 q 683 136 751 209 q 534 32 624 72 l 534 -18 q 500 -45 515 -45 l 494 -45 q 452 5 457 -43 q 404 0 430 0 l 383 0 l 383 -18 q 348 -45 364 -45 l 342 -45 q 311 -33 326 -45 q 302 5 302 -22 l 302 12 q 130 86 199 37 q 47 221 47 145 q 189 366 47 366 q 286 293 245 366 m 458 454 q 387 465 411 463 l 386 271 q 385 89 385 148 q 450 98 421 91 l 458 454 m 652 281 q 538 433 652 393 l 537 280 q 536 134 536 182 q 626 218 591 166 q 652 281 652 258 m 184 644 q 308 545 184 568 l 311 774 q 184 644 184 735 m 387 533 l 459 525 l 465 793 l 460 793 q 391 789 429 793 l 387 533 z "},"%":{"ha":1010,"x_min":61,"x_max":950,"o":"m 139 828 q 218 859 163 856 q 225 850 218 853 q 301 873 253 873 q 441 760 385 873 q 764 895 622 773 q 785 901 773 901 q 833 877 806 901 q 860 832 860 852 q 855 818 860 822 q 521 383 759 699 q 233 7 340 140 q 205 -7 222 -7 q 158 15 182 -7 q 133 57 133 36 q 143 79 133 69 q 591 650 312 243 q 621 691 605 670 l 651 734 q 464 693 564 697 q 467 654 467 681 q 407 515 467 572 q 275 461 350 461 q 117 515 176 461 q 61 654 61 568 q 140 828 61 749 l 139 828 m 545 203 q 578 321 545 270 q 722 408 623 393 q 783 419 748 419 q 903 349 854 419 q 950 203 950 283 q 885 64 950 121 q 749 9 825 9 q 595 64 649 9 q 545 203 545 115 m 676 264 l 682 317 q 627 215 627 290 q 658 128 627 161 q 743 94 690 94 q 828 131 788 94 q 871 218 871 169 q 843 304 871 268 q 783 340 817 340 q 760 335 777 340 l 676 264 m 290 720 q 218 785 241 731 l 214 781 q 146 652 146 724 q 183 570 146 600 q 273 542 218 542 q 349 574 316 542 q 382 656 382 608 q 376 699 382 680 q 288 721 323 706 l 290 720 m 283 794 q 302 777 283 784 q 343 765 315 770 q 294 798 318 798 q 283 794 283 798 z "},"&":{"ha":770,"x_min":19,"x_max":741,"o":"m 508 781 q 480 879 545 866 q 437 885 461 883 q 420 886 429 886 l 412 886 q 234 825 310 886 q 155 671 155 762 q 191 551 155 602 q 328 589 264 589 q 432 560 391 589 q 464 515 464 537 q 313 437 464 437 q 181 469 241 437 q 118 268 118 385 q 175 128 118 186 q 322 70 234 70 q 494 110 425 70 q 577 252 577 158 q 513 330 577 330 q 421 302 470 330 q 370 239 370 271 q 373 222 370 229 q 393 208 379 212 q 455 212 416 201 q 494 219 497 224 l 488 203 q 406 165 472 165 q 329 193 351 165 q 312 257 312 214 q 387 354 312 309 q 557 413 455 395 q 643 458 606 422 q 682 538 682 496 q 604 600 682 600 q 583 596 593 600 q 553 580 566 589 q 545 585 545 576 q 631 625 545 625 q 705 598 671 625 q 741 530 741 570 q 715 444 741 496 q 659 372 688 391 q 656 334 640 361 l 662 321 q 668 305 666 314 q 675 256 675 283 q 562 47 675 117 q 318 -12 467 -12 q 89 64 165 -12 q 19 264 19 134 q 127 505 19 401 q 56 673 56 576 q 167 878 56 789 q 393 961 271 961 q 539 917 490 961 q 578 832 578 882 q 508 781 566 784 m 328 540 q 231 513 282 540 q 319 493 278 493 q 382 495 340 493 q 425 512 424 498 q 328 540 423 540 z "},"'":{"ha":187,"x_min":32,"x_max":165,"o":"m 71 949 q 51 943 58 949 q 39 931 43 938 q 33 916 35 924 q 32 905 32 909 q 37 877 32 892 q 63 849 43 861 q 83 817 83 836 q 59 784 83 796 q 35 762 35 772 q 49 746 35 746 q 75 752 53 746 q 118 772 97 758 q 152 806 138 786 q 165 854 165 827 q 160 883 165 867 q 143 913 154 899 q 114 938 132 928 q 71 949 96 949 z "},"(":{"ha":276,"x_min":8,"x_max":265,"o":"m 258 22 l 211 -10 l 182 2 q 45 266 94 87 q 8 516 8 401 q 187 1020 8 739 l 204 1022 q 229 993 224 1013 q 104 543 104 804 q 141 300 104 429 q 258 85 186 144 l 265 78 l 258 22 z "},")":{"ha":281,"x_min":8,"x_max":273,"o":"m 58 -10 l 24 35 l 31 71 q 161 324 116 133 q 194 611 194 467 q 50 977 194 892 l 8 1001 l 24 1030 q 229 851 164 1009 q 273 613 273 743 q 118 -11 273 146 l 104 -12 l 58 -10 z "},"*":{"ha":446,"x_min":12,"x_max":423,"o":"m 254 681 l 406 553 l 407 538 l 390 513 q 382 511 387 511 q 372 513 375 511 q 236 629 329 555 l 227 469 q 218 458 225 458 q 184 471 186 458 l 178 624 l 161 608 q 79 525 102 551 q 54 511 69 511 q 15 561 15 534 q 20 587 15 578 q 147 686 58 625 l 126 701 q 14 768 115 704 q 12 772 12 770 q 55 829 12 783 q 68 835 62 835 q 178 750 79 835 l 176 807 q 189 872 176 825 l 258 897 l 267 893 q 279 871 279 888 q 277 856 279 861 l 275 844 q 252 749 257 791 l 281 764 q 399 815 302 774 l 420 802 l 423 782 l 254 681 z "},"+":{"ha":586,"x_min":36,"x_max":525,"o":"m 488 578 q 501 579 492 579 q 521 574 515 579 q 525 538 525 563 q 508 467 525 477 q 435 473 477 473 q 326 465 399 473 l 326 447 q 349 298 326 369 l 351 285 q 319 262 351 262 q 265 273 290 262 q 245 293 250 278 q 231 457 231 364 l 214 457 q 76 482 137 457 q 36 543 36 497 q 66 597 36 588 l 66 595 q 87 581 66 587 q 233 554 151 554 q 236 646 236 612 q 233 725 236 669 q 289 737 237 737 l 308 737 q 337 728 337 737 l 337 726 q 338 676 338 710 q 333 562 338 635 q 486 578 433 576 l 488 578 z "},",":{"ha":199,"x_min":15,"x_max":184,"o":"m 27 -122 q 85 -102 60 -122 q 112 -50 112 -81 q 97 -26 112 -31 q 85 -32 90 -26 q 60 -43 75 -43 q 29 -31 43 -43 q 15 -4 15 -18 q 94 81 15 81 q 166 31 141 81 q 184 -39 184 -5 q 155 -122 184 -87 q 77 -158 125 -158 q 20 -122 34 -158 l 27 -122 z "},"-":{"ha":467,"x_min":48,"x_max":409,"o":"m 382 383 q 391 385 385 385 q 405 379 401 385 q 409 343 409 369 q 397 272 409 283 q 341 279 374 279 l 179 262 q 77 288 122 262 q 48 349 48 303 q 71 403 48 394 l 71 399 q 85 386 71 394 q 191 361 132 361 q 285 372 223 361 q 382 383 349 382 z "},".":{"ha":153,"x_min":15,"x_max":137,"o":"m 77 90 q 119 72 102 90 q 137 29 137 54 q 119 -12 137 6 q 79 -31 102 -31 q 35 -15 53 -31 q 15 25 15 1 q 77 90 15 90 z "},"/":{"ha":762,"x_min":15,"x_max":749,"o":"m 643 889 q 656 893 649 893 q 713 863 678 893 q 749 811 749 831 q 747 804 749 806 q 127 -46 633 667 q 106 -56 119 -56 q 50 -35 83 -56 q 15 4 15 -14 q 22 21 15 16 q 551 739 284 337 l 643 889 z "},":":{"ha":187,"x_min":15,"x_max":170,"o":"m 150 57 q 96 31 127 31 q 39 50 62 31 q 15 103 15 71 q 37 161 15 138 q 94 184 60 184 q 147 163 125 184 q 170 109 170 139 q 150 57 170 78 m 150 289 q 96 265 130 265 q 39 285 62 265 q 15 336 15 304 q 37 394 15 371 q 94 418 60 418 q 149 396 127 418 q 170 340 170 374 q 150 289 170 310 z "},";":{"ha":215,"x_min":31,"x_max":200,"o":"m 43 -122 q 101 -102 76 -122 q 127 -50 127 -81 q 113 -26 127 -31 q 101 -32 105 -26 q 75 -43 90 -43 q 45 -31 59 -43 q 31 -4 31 -18 q 110 81 31 81 q 182 31 157 81 q 200 -39 200 -5 q 171 -122 200 -87 q 93 -158 140 -158 q 36 -122 50 -158 l 43 -122 m 114 443 q 166 420 144 443 q 189 367 189 398 q 167 314 189 337 q 115 290 144 290 q 59 311 83 290 q 35 361 35 332 q 56 420 35 397 q 114 443 79 443 z "},"<":{"ha":410,"x_min":40,"x_max":376,"o":"m 298 722 q 345 646 349 694 q 279 541 340 598 l 179 444 l 299 340 q 376 227 370 278 q 333 175 376 175 q 264 239 308 175 q 135 367 222 299 q 40 444 46 435 q 113 509 54 468 q 250 640 182 555 q 273 684 258 650 q 298 722 286 713 z "},"=":{"ha":743,"x_min":43,"x_max":671,"o":"m 612 329 q 630 330 618 330 q 654 325 646 330 q 659 289 659 316 q 639 218 659 229 q 544 225 599 225 q 407 216 499 225 q 267 208 315 208 q 94 233 171 208 q 43 294 43 249 q 83 349 43 339 l 83 345 q 108 332 83 339 q 287 307 189 307 q 446 317 341 307 q 612 329 555 328 m 625 513 q 642 514 630 514 q 665 509 658 514 q 671 472 671 499 q 650 401 671 412 q 557 408 610 408 q 420 400 512 408 q 281 392 330 392 q 109 416 186 392 q 60 478 60 432 q 98 532 60 523 l 98 528 q 123 515 98 523 q 302 490 203 490 q 460 501 356 490 q 625 513 568 512 z "},">":{"ha":410,"x_min":40,"x_max":376,"o":"m 118 722 q 143 684 130 713 q 166 640 158 650 q 303 509 234 555 q 376 444 362 468 q 281 367 370 435 q 153 239 194 299 q 83 175 109 175 q 40 227 40 175 q 117 340 46 278 l 237 444 l 137 541 q 72 646 76 598 q 118 722 68 694 z "},"?":{"ha":493,"x_min":29,"x_max":478,"o":"m 164 679 q 111 665 136 665 q 50 696 74 665 q 29 754 29 723 q 86 873 29 823 q 241 928 148 928 q 478 699 478 928 q 361 513 478 635 q 245 319 245 390 q 270 255 245 286 q 334 220 296 220 l 343 220 l 347 192 l 335 175 l 326 172 q 294 167 306 167 q 201 210 233 167 q 159 313 159 256 q 260 534 159 427 q 395 708 395 661 q 237 850 402 850 q 90 734 90 829 q 164 679 90 710 m 271 80 q 309 64 292 80 q 324 26 324 48 q 309 -12 324 5 q 272 -28 292 -28 q 233 -14 249 -28 q 215 22 215 1 q 271 80 215 80 z "},"@":{"ha":918,"x_min":77,"x_max":852,"o":"m 534 631 q 553 636 543 636 q 663 429 663 636 q 640 307 663 360 q 677 279 656 279 q 777 427 777 293 q 676 715 777 602 q 486 800 604 800 q 242 661 353 800 q 161 318 161 546 q 477 20 189 54 q 747 149 659 7 q 801 167 777 167 q 827 136 827 167 l 823 122 q 469 -53 737 -53 q 183 64 288 -53 q 77 383 77 181 q 200 719 77 562 q 484 882 327 882 q 767 743 670 882 q 852 415 852 620 q 821 299 852 351 q 694 227 779 227 q 606 252 644 227 q 483 199 553 199 q 334 260 387 199 q 284 425 284 319 q 338 555 284 497 q 536 632 407 632 l 534 631 m 479 542 q 481 578 479 559 q 468 565 476 568 q 357 418 357 513 q 477 265 357 265 q 545 297 515 265 q 479 542 479 401 m 547 585 q 528 549 528 585 q 597 332 535 448 q 605 382 605 360 q 547 585 605 585 z "},"A":{"ha":754,"x_min":18,"x_max":705,"o":"m 703 -7 q 691 -46 703 -43 q 634 -52 647 -52 q 583 -43 606 -52 q 430 250 549 91 q 354 239 383 242 q 159 285 244 247 l 157 14 q 111 -17 150 -14 q 67 26 73 -20 q 50 400 44 227 q 18 481 18 446 q 69 541 18 526 q 210 879 111 754 q 446 1007 311 1007 q 705 415 699 1007 l 705 343 q 703 211 703 243 l 703 -7 m 442 910 q 283 805 358 910 q 171 541 210 704 q 205 535 193 538 q 495 327 342 484 q 618 155 569 227 l 623 495 q 442 910 623 910 m 176 467 q 165 373 167 406 q 380 311 252 311 q 176 467 267 439 z "},"B":{"ha":1006,"x_min":-68,"x_max":991,"o":"m 186 85 q 195 551 200 374 q 136 753 189 729 q -11 616 31 679 q -39 589 -26 589 q -68 621 -68 589 q -62 653 -68 636 q 201 871 28 765 q 613 1007 422 1007 q 806 964 718 1007 q 911 782 911 913 q 816 570 911 686 q 934 464 884 530 q 991 318 991 388 q 804 32 991 126 q 439 -41 658 -41 q 186 85 186 -41 m 307 92 q 469 50 320 50 q 734 106 608 52 q 891 328 891 176 q 874 411 891 382 q 763 493 846 457 q 674 418 709 439 q 534 348 587 366 q 313 309 439 309 l 307 92 m 228 806 q 298 574 264 766 q 581 619 429 619 q 742 595 681 619 q 832 788 832 678 q 758 897 832 862 q 618 924 702 924 q 352 873 493 924 q 228 806 228 823 m 306 392 q 508 424 369 373 q 686 522 648 475 q 547 544 629 544 q 364 503 473 544 q 304 460 326 488 l 306 392 z "},"C":{"ha":850,"x_min":20,"x_max":852,"o":"m 799 68 q 802 48 799 68 q 717 -10 804 28 q 469 -49 629 -49 q 158 81 286 -49 q 20 431 20 221 q 152 796 20 626 q 553 997 308 997 q 775 924 696 997 q 852 764 852 852 q 787 619 852 671 q 670 574 730 574 q 566 614 610 574 q 524 709 524 654 q 568 796 524 758 q 627 800 611 827 q 597 716 597 791 q 613 673 597 692 q 660 648 633 648 q 724 672 688 648 q 773 770 773 704 q 557 926 773 926 q 241 755 392 926 q 123 444 123 610 q 248 149 123 279 q 473 49 351 49 q 722 78 650 49 q 799 68 794 108 z "},"D":{"ha":1223,"x_min":-163,"x_max":1187,"o":"m 25 1006 q 886 769 486 1006 q 1187 359 1187 578 q 956 49 1187 145 q 660 -1 821 -1 q 437 28 572 -1 q 391 -80 428 -80 l 379 -80 q 344 -21 357 -80 q 332 60 338 24 q 33 321 33 172 q 168 473 33 410 q 350 515 240 500 q 397 720 370 720 l 399 720 q 444 517 425 720 l 475 517 q 830 427 736 517 q 836 409 836 420 q 754 327 836 356 q 722 323 736 321 q 701 340 703 327 q 730 370 701 355 q 751 389 760 385 q 488 409 669 409 l 446 409 q 444 104 444 220 q 642 81 513 87 q 1038 264 953 93 q 1059 362 1059 307 q 724 760 1059 560 q -52 948 376 948 q -107 936 -107 948 q -84 921 -107 930 q -60 901 -61 912 q -72 886 -60 886 q -163 951 -163 901 q 25 1006 -163 999 m 86 316 q 335 136 86 227 q 341 406 335 252 q 86 316 86 387 z "},"E":{"ha":724,"x_min":12,"x_max":704,"o":"m 650 864 q 608 909 650 897 q 487 928 558 928 q 321 882 394 928 q 224 737 224 818 q 299 601 237 641 q 477 564 361 561 q 523 513 526 566 q 407 492 516 482 q 205 447 284 503 q 121 269 125 391 q 210 92 121 160 q 418 31 306 31 q 610 72 547 31 q 684 113 673 113 q 697 75 697 113 q 622 -17 697 21 q 427 -56 546 -56 q 140 26 256 -56 q 12 268 12 115 q 221 560 12 473 q 111 742 115 631 q 235 947 117 873 q 484 1010 338 1010 q 642 983 562 1010 q 704 869 704 964 q 644 778 704 778 q 612 783 656 778 q 650 864 650 812 z "},"F":{"ha":687,"x_min":-22,"x_max":730,"o":"m 177 812 q -22 929 -22 831 q 5 985 -22 965 q 54 1000 26 1000 q 239 899 135 1000 l 317 903 q 587 911 488 911 q 730 827 730 911 q 700 777 730 796 q 644 760 674 760 q 617 765 627 760 q 673 807 673 817 q 613 827 673 827 q 457 817 573 827 q 287 808 328 808 l 286 808 q 351 484 344 688 l 608 479 q 656 420 655 479 q 630 393 656 395 q 352 404 604 391 q 309 26 352 220 q 266 -62 300 -47 q 197 -81 225 -79 q 176 -63 182 -81 q 176 -35 170 -47 q 249 446 243 108 q 177 812 239 688 m 125 890 q 55 957 98 957 q 30 929 30 957 q 62 900 30 911 q 115 890 89 890 l 125 890 z "},"G":{"ha":799,"x_min":14,"x_max":1002,"o":"m 681 353 q 711 233 711 334 q 620 35 711 108 q 360 -37 528 -37 q 113 38 203 -37 q 14 277 14 119 q 239 787 14 566 q 750 1007 463 1007 q 924 956 852 1007 q 1002 814 1002 901 q 981 755 1002 780 q 927 730 958 730 q 863 783 876 730 q 905 775 896 775 q 932 811 932 775 q 878 890 932 848 q 770 918 831 918 q 427 817 587 918 q 216 615 285 736 q 115 256 115 456 q 199 96 115 167 q 359 50 262 50 q 575 108 515 50 q 628 244 635 166 q 578 345 621 322 q 427 372 534 368 q 395 399 395 374 q 435 429 395 431 q 798 432 770 438 q 826 401 826 427 q 802 359 826 368 q 681 353 778 350 z "},"H":{"ha":740,"x_min":51,"x_max":705,"o":"m 601 979 q 667 1006 629 1006 q 704 991 696 1006 l 704 571 q 703 432 704 482 l 705 351 l 703 347 q 691 16 697 136 l 691 -33 q 648 -41 691 -41 q 597 -36 601 -41 q 597 357 594 -34 q 404 391 608 373 q 156 386 200 409 l 149 -11 q 106 -41 149 -41 q 58 -29 59 -41 l 55 289 l 52 293 l 51 543 l 54 547 l 54 900 l 51 947 q 125 985 64 985 q 162 970 156 985 l 157 493 q 395 494 294 509 q 598 454 496 479 l 600 458 l 602 547 q 601 930 602 762 l 601 979 z "},"I":{"ha":359,"x_min":-15,"x_max":374,"o":"m 328 96 q 338 98 331 98 q 352 92 348 98 q 356 69 356 81 q 343 -1 356 9 q 288 5 321 5 l 237 0 l 237 -1 l 234 0 l 125 -11 q 24 14 68 -11 q -5 75 -5 29 q 17 115 -5 106 l 17 111 q 33 99 17 106 q 123 74 74 76 l 120 77 q 143 538 143 379 q 123 852 143 678 l 90 851 q 16 876 45 851 q -15 947 -15 903 q 83 1006 -15 1006 q 197 957 161 1006 q 300 996 249 968 q 374 994 354 1011 q 226 871 335 892 q 248 536 248 710 q 227 86 248 479 q 328 96 300 95 z "},"J":{"ha":787,"x_min":17,"x_max":758,"o":"m 758 9 q 606 57 698 37 q 256 -220 496 -220 q 80 -148 154 -220 q 17 -29 17 -86 q 151 117 17 64 q 433 161 265 161 q 521 155 466 161 q 571 460 571 304 q 470 911 557 911 q 368 743 426 911 q 327 488 327 599 q 410 296 340 336 q 366 290 388 290 l 356 292 q 277 377 305 301 q 252 528 252 442 q 304 850 252 715 q 473 1007 366 1007 q 564 977 530 1007 q 613 899 587 956 q 670 435 670 774 q 631 127 670 271 q 758 9 749 83 m 258 -165 q 498 75 416 -165 q 400 81 450 81 q 159 50 231 81 q 92 -41 92 22 q 132 -112 92 -71 q 258 -165 183 -165 z "},"K":{"ha":741,"x_min":56,"x_max":711,"o":"m 566 922 q 581 958 566 937 q 630 986 601 986 q 682 964 656 986 q 711 913 711 940 q 464 460 711 635 q 656 176 597 347 q 687 50 683 100 q 691 -25 691 -1 q 686 -52 691 -49 q 627 18 641 -79 q 363 403 581 208 q 158 357 263 357 l 168 5 q 112 -46 156 -46 q 66 -11 73 -46 l 59 83 l 58 395 l 58 562 l 56 946 q 95 974 58 974 q 146 925 144 974 l 153 464 q 299 485 191 448 q 541 686 408 522 q 642 897 642 800 q 618 925 642 925 q 583 892 587 925 l 566 922 z "},"L":{"ha":667,"x_min":22,"x_max":676,"o":"m 148 79 q 667 101 545 98 q 676 62 676 90 q 536 4 676 18 q 115 -11 396 -11 q 49 16 75 -11 q 55 148 22 50 q 98 464 89 245 q 84 968 107 683 q 91 1002 84 995 q 124 1011 98 1011 q 189 918 167 1011 q 208 750 208 863 q 148 79 221 275 z "},"M":{"ha":1002,"x_min":33,"x_max":1006,"o":"m 248 950 q 136 17 147 514 q 106 -16 136 -16 q 39 321 33 -16 q 87 771 39 565 q 142 952 115 896 q 273 1061 195 1061 q 358 975 336 1061 l 547 306 q 562 266 560 266 q 578 307 564 266 l 779 987 q 871 1046 804 1046 q 987 802 977 1046 q 977 96 1006 310 q 948 24 967 24 q 906 45 925 24 q 885 135 887 67 l 874 928 q 708 372 845 913 q 569 142 652 142 q 502 178 530 142 q 371 522 434 283 q 260 951 292 823 q 248 950 253 975 z "},"N":{"ha":792,"x_min":16,"x_max":777,"o":"m 618 999 q 777 395 777 755 q 638 -18 777 34 q 426 172 559 -15 q 212 589 290 361 q 117 35 166 297 q 64 -18 102 -18 q 29 13 44 -18 q 16 77 16 42 q 18 103 16 94 q 120 682 44 194 q 131 873 135 787 q 177 960 126 960 q 256 777 220 960 q 421 380 291 594 q 627 119 563 118 q 659 375 659 224 q 591 961 659 609 q 618 999 571 994 z "},"O":{"ha":773,"x_min":22,"x_max":930,"o":"m 930 817 q 907 775 930 775 q 882 800 890 775 q 804 847 867 847 q 723 829 766 847 q 748 699 748 766 q 741 635 748 674 q 765 538 765 614 q 669 165 765 336 q 363 -39 553 -39 q 105 121 202 -39 q 22 436 22 259 q 146 823 22 651 q 484 1010 283 1010 q 692 888 616 1010 q 808 909 755 909 q 886 886 850 909 q 930 817 930 859 m 351 490 q 427 688 351 587 q 603 844 496 781 q 477 936 551 936 q 220 769 320 936 q 127 400 127 614 q 186 150 127 243 q 387 43 254 43 q 593 193 496 43 q 703 495 685 332 q 488 330 625 330 q 351 490 351 330 m 654 671 q 637 777 654 723 q 446 492 446 646 q 500 412 446 412 q 602 492 552 412 q 654 671 654 575 z "},"P":{"ha":709,"x_min":9,"x_max":827,"o":"m 9 914 q 240 997 93 997 q 623 880 436 997 q 827 579 827 751 q 688 378 827 463 q 386 297 555 297 q 318 302 358 297 q 317 221 317 281 q 322 25 317 132 q 255 -53 319 -34 q 223 -25 242 -53 l 212 33 q 210 106 210 66 l 212 325 q 90 389 146 345 q 22 496 22 443 q 161 637 22 598 q 207 648 216 648 q 211 749 210 741 q 255 852 216 814 q 298 762 294 827 l 308 647 q 464 559 464 647 q 422 511 464 515 q 426 530 426 522 q 311 570 426 570 l 314 385 q 380 380 345 380 q 583 420 482 380 q 726 572 726 485 q 498 842 741 713 q 189 926 354 915 q 12 899 105 926 l 9 914 m 208 570 q 143 566 165 570 q 76 514 76 552 q 208 413 76 461 l 208 570 z "},"Q":{"ha":926,"x_min":18,"x_max":907,"o":"m 738 62 q 829 9 789 23 q 870 3 847 3 q 907 12 897 3 l 907 4 q 892 -44 907 -21 q 858 -69 877 -68 q 833 -71 850 -71 q 658 1 753 -71 q 652 5 655 3 q 477 -41 568 -41 q 138 94 263 -41 q 18 444 18 226 q 190 893 18 686 q 348 977 247 962 l 359 958 q 333 892 333 925 l 333 883 q 115 410 113 718 q 272 101 115 240 q 458 43 350 43 q 574 59 530 43 q 498 100 532 89 q 457 107 480 107 q 420 98 431 107 l 420 106 q 435 154 420 131 q 469 179 450 178 q 494 180 477 180 q 658 117 569 180 q 788 447 788 262 q 705 760 788 604 q 522 930 627 917 l 519 930 q 447 872 447 928 q 500 781 447 814 q 587 754 542 754 l 564 710 q 541 705 555 705 q 485 719 529 705 q 398 779 440 733 q 359 864 359 833 q 536 1007 359 1007 q 762 850 650 1007 q 888 444 888 675 q 733 65 888 212 q 738 62 735 63 z "},"R":{"ha":855,"x_min":-100,"x_max":892,"o":"m 386 999 q 487 997 386 999 q 692 928 587 994 q 816 690 816 851 q 520 385 816 432 q 888 -57 753 282 q 892 -77 892 -67 q 862 -109 892 -109 q 826 -78 843 -109 q 505 291 639 222 q 208 342 371 359 q 206 185 206 264 q 213 36 206 107 q 169 -25 213 -25 q 117 32 121 -25 q 109 160 109 103 q 117 726 120 686 l 119 739 q 163 789 121 789 q 199 750 199 789 l 211 423 q 568 488 413 429 q 724 686 724 547 q 633 858 724 802 q 367 916 543 913 q 77 895 191 918 q -33 840 -36 871 q -22 803 -33 821 q 26 774 -11 785 q 18 757 29 759 q -91 829 -81 761 q 42 964 -100 924 q 386 999 185 1004 z "},"S":{"ha":868,"x_min":18,"x_max":847,"o":"m 477 310 q 439 255 476 258 q 200 279 293 300 q 107 189 107 259 q 181 80 107 121 q 386 39 255 39 q 654 96 563 39 q 745 263 745 153 q 652 433 745 374 q 387 515 560 492 q 137 590 214 538 q 60 726 60 642 q 217 929 60 844 q 611 1006 357 1006 q 699 998 655 1010 q 752 953 743 987 q 645 914 762 919 q 304 879 393 919 q 161 731 161 828 q 416 589 161 629 q 759 461 670 548 q 833 223 847 374 q 706 14 820 72 q 439 -45 593 -45 q 130 12 243 -45 q 18 182 18 68 q 98 326 18 275 q 293 369 166 369 q 477 310 477 355 z "},"T":{"ha":699,"x_min":19,"x_max":954,"o":"m 452 -142 q 370 -96 405 -138 q 229 325 229 85 q 355 699 229 506 q 127 798 236 739 q 19 922 19 857 q 42 966 19 946 q 156 877 56 937 q 414 777 256 816 q 866 958 600 958 q 954 913 954 958 q 829 720 954 792 q 600 659 725 659 q 472 671 536 659 q 349 237 349 520 q 447 -85 349 61 q 471 -127 471 -120 q 452 -142 471 -142 m 757 856 q 505 740 609 819 q 573 738 527 738 q 886 875 804 738 q 757 856 846 875 z "},"U":{"ha":880,"x_min":32,"x_max":850,"o":"m 159 968 q 190 985 180 985 q 201 966 201 985 q 183 885 201 949 q 144 561 144 726 q 403 41 138 41 q 605 173 523 41 q 707 512 686 304 q 752 943 727 720 q 803 989 756 990 q 846 922 850 988 q 806 472 822 761 q 807 79 789 183 q 816 -43 824 -25 q 787 -61 808 -61 q 755 -49 772 -61 q 693 149 705 16 q 397 -66 589 -66 q 32 503 32 -66 q 159 968 32 769 z "},"V":{"ha":716,"x_min":23,"x_max":766,"o":"m 149 996 l 139 954 q 123 860 129 911 q 117 779 117 808 q 228 290 112 482 q 422 97 345 97 q 559 315 486 97 q 682 800 633 533 q 723 885 696 885 q 759 873 745 888 q 766 847 766 864 q 692 374 762 595 q 488 3 616 132 q 451 -7 476 -7 q 352 16 397 -7 q 23 717 23 212 q 47 857 23 774 q 138 1007 81 973 q 149 996 153 1011 z "},"W":{"ha":1095,"x_min":14,"x_max":1074,"o":"m 854 1014 q 1008 842 912 1004 q 1074 523 1074 726 q 894 47 1074 227 q 652 -56 779 -56 q 397 75 498 -56 q 267 44 326 44 q 33 247 101 44 q 18 318 21 286 q 18 455 14 382 q 121 737 28 594 q 352 937 257 918 q 361 937 356 938 q 372 922 373 935 q 298 825 372 910 q 127 383 127 599 q 238 121 127 180 q 292 110 265 110 q 363 127 321 110 q 317 315 317 241 q 452 660 317 530 q 594 720 528 720 q 697 643 669 720 q 711 560 711 608 q 477 121 711 326 q 649 13 561 13 q 911 233 810 13 q 965 577 965 389 q 839 994 965 852 q 836 1009 831 1000 q 854 1014 841 1018 m 412 355 q 448 181 412 247 q 591 460 566 314 q 606 569 606 519 l 606 577 q 554 654 606 653 q 432 500 485 654 q 412 355 412 416 z "},"X":{"ha":916,"x_min":0,"x_max":950,"o":"m 778 916 q 558 530 755 798 q 522 478 526 484 q 760 104 674 168 q 890 10 846 40 q 950 -20 933 -20 q 940 -33 950 -31 q 917 -36 933 -36 q 787 -5 875 -36 q 449 413 604 64 q 195 -35 221 25 q 167 -50 186 -50 q 150 -47 161 -50 q 123 -4 119 -36 q 390 482 165 104 q 191 887 275 772 q 100 931 152 931 q 57 840 70 931 q 16 858 26 846 q 0 916 0 874 l 0 921 q 46 981 1 957 q 142 1004 88 1004 q 240 966 211 1004 q 465 550 353 812 q 682 956 671 864 q 700 978 686 975 q 763 962 746 985 q 778 916 779 938 z "},"Y":{"ha":468,"x_min":0,"x_max":575,"o":"m 254 1004 q 277 977 277 1004 q 225 861 277 943 q 103 472 103 646 q 175 339 103 350 l 191 403 q 287 700 227 564 q 490 933 389 933 q 575 705 575 933 q 497 397 575 529 q 254 235 412 254 q 201 -161 201 5 q 191 -197 201 -178 q 160 -222 178 -220 q 107 -209 130 -227 q 83 -132 83 -191 q 154 245 83 -37 q 0 473 0 304 q 232 989 0 734 q 254 1004 250 1004 m 467 834 q 263 332 330 715 q 435 504 374 373 q 492 761 492 620 q 477 840 492 801 l 467 834 z "},"Z":{"ha":961,"x_min":4,"x_max":926,"o":"m 5 1 q 359 350 147 119 q 736 814 570 581 q 432 880 559 835 q 233 926 305 926 q 94 895 133 932 q 140 968 60 928 q 273 1000 205 1000 q 492 963 381 1000 q 683 922 657 928 q 772 910 736 909 q 836 911 808 911 q 861 880 861 910 q 825 772 861 810 q 221 65 602 434 q 924 84 814 64 q 817 -20 926 -6 q 58 -62 76 -62 l 50 -60 q 19 -39 34 -58 q 4 -5 4 -22 l 5 1 z "},"[":{"ha":395,"x_min":36,"x_max":375,"o":"m 36 35 q 100 87 36 58 l 113 930 q 43 984 43 961 q 75 1002 43 1000 q 162 1015 89 1002 q 286 1027 228 1027 q 336 1019 304 1027 q 375 959 375 970 q 308 931 375 935 l 211 928 q 193 927 199 928 q 190 710 190 924 q 192 431 190 515 l 194 91 l 301 88 q 368 60 368 84 q 329 1 368 50 q 279 -7 297 -7 q 155 4 221 -7 q 68 18 82 17 q 36 35 36 20 z "},"\\":{"ha":846,"x_min":33,"x_max":821,"o":"m 35 790 q 33 798 33 791 q 35 804 33 802 q 73 849 39 823 q 129 875 106 875 l 136 873 q 142 869 142 873 q 817 62 243 730 q 821 49 821 56 q 819 40 821 43 q 789 -7 815 18 q 745 -35 764 -35 l 740 -35 q 725 -22 728 -33 q 157 665 472 323 l 35 790 z "},"]":{"ha":395,"x_min":36,"x_max":375,"o":"m 375 983 q 311 931 375 960 l 298 88 q 368 34 368 57 q 336 16 368 18 q 249 3 322 16 q 125 -9 183 -9 q 75 -1 106 -9 q 36 59 36 48 q 102 87 36 83 l 200 90 q 218 91 212 90 q 220 308 220 94 l 218 723 l 216 927 l 110 930 q 43 958 43 934 q 82 1017 43 968 q 132 1025 113 1025 q 256 1014 190 1025 q 343 1000 329 1001 q 375 983 375 998 z "},"^":{"ha":458,"x_min":20,"x_max":419,"o":"m 222 651 q 155 577 191 600 q 76 551 113 551 q 36 574 52 551 q 20 620 20 596 q 26 641 20 633 q 62 634 40 634 q 149 692 108 634 q 184 768 167 715 q 230 806 189 806 q 272 777 261 806 q 309 682 296 699 q 390 649 330 649 q 419 612 419 649 q 390 562 419 562 q 271 601 315 562 q 222 651 229 637 z "},"_":{"ha":1093,"x_min":23,"x_max":1066,"o":"m 985 37 q 1016 39 996 39 q 1057 35 1044 39 q 1066 7 1066 27 q 1031 -47 1066 -39 q 871 -42 964 -42 q 638 -48 795 -42 q 401 -55 482 -55 q 109 -36 238 -55 q 23 11 23 -24 q 90 52 23 45 l 88 50 q 133 39 88 45 q 435 20 267 20 q 706 28 527 20 q 985 37 890 37 z "},"`":{"ha":328,"x_min":3,"x_max":323,"o":"m 323 652 q 273 562 311 562 q 37 667 50 666 l 33 667 q 15 660 26 667 q 3 703 3 675 l 3 711 q 37 753 3 753 q 75 743 51 753 q 170 697 93 734 q 314 646 269 652 l 323 652 z "},"a":{"ha":406,"x_min":14,"x_max":389,"o":"m 277 532 q 350 261 313 532 q 389 -6 389 52 q 378 -14 389 -14 q 322 50 336 -11 l 300 142 q 136 136 231 133 q 71 -28 86 -23 q 58 -28 64 -32 q 21 58 14 1 q 46 167 21 69 q 16 239 16 184 q 19 246 16 245 q 24 245 22 247 q 71 225 44 225 q 233 512 161 433 q 277 532 253 532 m 163 211 l 289 214 q 250 414 257 414 q 163 211 230 401 z "},"b":{"ha":429,"x_min":-9,"x_max":421,"o":"m 42 49 q 38 64 42 49 q 33 155 33 79 q 35 205 33 187 q 71 376 35 277 q 16 364 40 364 q -9 383 -9 364 q 9 415 -7 399 q 243 488 68 488 q 343 450 302 488 q 385 359 385 413 q 331 277 385 310 q 421 164 421 258 q 374 41 421 91 q 239 -5 324 -5 q 106 5 161 -8 q 42 49 52 19 m 217 229 q 127 220 153 229 l 120 86 q 189 73 154 74 q 336 155 336 73 q 217 229 336 229 m 248 413 q 157 404 195 413 l 150 372 q 134 287 136 311 q 301 362 301 298 q 248 413 301 411 z "},"c":{"ha":464,"x_min":20,"x_max":443,"o":"m 405 102 q 424 112 405 102 q 443 77 443 122 q 224 0 443 0 q 20 186 20 0 q 101 393 20 304 q 323 489 189 489 q 398 472 359 489 q 431 426 437 455 q 380 408 425 396 q 167 342 238 427 q 102 182 102 263 q 233 71 102 85 q 332 76 296 71 q 405 102 368 81 z "},"d":{"ha":516,"x_min":4,"x_max":488,"o":"m 178 420 q 185 75 178 182 q 257 66 204 66 q 398 191 385 73 q 336 343 398 276 q 178 420 274 410 m 142 490 q 168 507 153 507 l 178 507 l 178 487 q 444 332 340 467 q 488 201 488 264 q 414 50 488 104 q 193 -4 340 -4 l 185 -4 q 151 -39 178 -35 q 114 17 114 -39 l 114 22 q 28 113 28 62 q 37 169 28 155 q 104 105 58 127 q 102 160 102 121 q 121 427 102 348 q 33 425 97 429 q 4 443 4 426 q 38 475 4 460 q 121 490 71 490 q 142 490 132 490 z "},"e":{"ha":423,"x_min":-1,"x_max":395,"o":"m 256 477 q 385 444 352 479 q 385 404 395 426 q 277 386 361 386 l 179 386 q 141 248 162 361 l 144 248 q 262 256 253 256 q 309 224 309 254 q 224 174 289 180 q 126 168 173 169 l 123 102 q 165 56 127 56 q 351 70 317 63 q 366 61 366 71 q 185 -36 366 7 q 132 -42 158 -42 q 32 58 32 -42 q 47 179 32 98 q -1 214 -1 193 q 58 238 -1 229 q 97 389 76 327 l 94 389 q 26 421 26 395 q 256 477 30 464 z "},"f":{"ha":426,"x_min":22,"x_max":408,"o":"m 272 488 q 381 472 355 488 q 408 428 407 455 q 292 397 404 397 l 195 397 q 163 279 178 372 l 166 279 q 338 288 330 288 q 386 256 386 286 q 149 199 386 205 q 146 23 146 73 q 103 -22 146 -27 q 61 69 61 -18 q 69 203 61 109 q 22 231 22 203 q 81 269 22 260 q 109 399 92 338 q 41 432 41 406 q 272 488 45 488 z "},"g":{"ha":468,"x_min":12,"x_max":459,"o":"m 330 363 q 309 420 351 420 q 271 413 299 420 q 97 182 97 340 q 242 55 97 60 q 385 186 383 60 q 260 175 270 179 q 238 188 250 172 q 239 215 232 203 q 302 234 247 228 q 406 241 358 240 q 446 225 432 241 q 459 172 459 208 q 403 43 459 91 q 227 -4 347 -4 q 12 184 12 -4 q 117 406 12 309 q 300 490 210 490 q 404 421 404 490 q 330 363 404 372 z "},"h":{"ha":381,"x_min":15,"x_max":363,"o":"m 252 453 q 290 492 252 484 q 320 487 313 492 q 331 470 328 482 q 336 441 334 458 l 347 236 q 355 116 347 210 q 348 5 363 22 q 316 -1 328 -1 q 279 36 286 -1 l 274 158 q 102 159 204 149 q 104 36 104 113 q 97 11 104 16 q 75 3 91 6 q 46 11 57 3 q 23 60 35 20 q 30 389 15 232 q 83 465 34 465 q 106 427 113 465 q 99 311 99 368 l 99 234 q 198 227 142 227 q 267 229 254 227 l 252 453 z "},"i":{"ha":235,"x_min":-26,"x_max":446,"o":"m 227 902 q 342 852 325 902 q 446 773 446 852 q 311 618 446 696 q 154 582 237 582 q 50 599 109 582 q -1 557 22 557 q -9 571 -8 559 q 8 633 -9 591 q -26 714 -26 661 q 129 888 -26 822 q 227 902 172 902 m 56 725 q 58 700 52 707 q 252 825 165 804 q 56 725 83 837 m 106 650 q 176 635 118 641 q 378 739 298 635 q 387 770 387 751 q 364 793 387 793 q 115 661 279 793 l 106 650 m 112 490 q 157 350 153 490 q 98 1 157 1 q 47 170 54 1 q 98 478 47 336 q 112 490 102 486 z "},"j":{"ha":269,"x_min":-71,"x_max":401,"o":"m 79 390 q 119 472 78 468 q 186 210 163 477 q 293 281 248 255 q 294 279 294 281 q 293 272 294 275 q 193 138 266 205 l 196 93 q 155 -283 196 -210 q 33 -367 119 -367 q -66 -172 -66 -367 q 93 118 -66 -28 l 79 390 m 100 35 q 75 14 77 18 q 5 -180 5 -57 q 61 -304 5 -294 q 100 35 95 -296 m 182 880 q 297 829 280 880 q 401 751 401 829 q 266 596 401 673 q 109 559 193 559 q 5 576 64 559 q -45 534 -23 534 q -54 549 -53 536 q -37 610 -54 569 q -71 692 -71 639 q 84 865 -71 800 q 182 880 127 880 m 11 703 q 14 677 7 685 q 207 802 120 781 q 11 703 38 814 m 61 627 q 132 613 73 618 q 334 717 253 613 q 342 748 342 729 q 319 770 342 770 q 70 638 234 770 l 61 627 z "},"k":{"ha":425,"x_min":23,"x_max":416,"o":"m 23 458 q 73 490 23 490 q 115 329 115 490 q 114 267 115 302 q 345 472 229 353 q 365 479 357 479 q 397 458 391 481 q 386 421 402 435 q 163 214 291 319 q 395 85 270 75 q 416 41 416 79 q 377 -1 416 2 q 114 163 245 -9 l 121 29 q 79 -3 117 -3 q 43 12 55 -3 q 31 64 31 27 q 26 309 26 221 l 23 458 z "},"l":{"ha":297,"x_min":20,"x_max":288,"o":"m 138 513 q 152 490 155 512 q 109 87 110 194 q 281 113 146 87 q 288 98 288 113 q 167 3 288 37 q 108 0 147 0 q 20 104 20 0 q 115 498 20 278 q 138 513 122 513 z "},"m":{"ha":630,"x_min":24,"x_max":612,"o":"m 119 319 q 210 446 168 410 q 305 497 269 497 q 353 389 347 497 q 372 163 369 182 q 548 468 420 468 q 588 451 576 468 q 602 396 599 435 q 607 95 612 209 q 574 -21 602 -20 q 519 30 523 -25 q 516 269 516 158 q 520 378 516 364 q 445 224 478 361 q 420 129 437 196 q 399 52 407 73 q 363 32 393 32 q 290 190 317 30 q 270 397 270 322 q 176 309 203 353 q 121 89 119 218 q 85 -14 121 -12 q 41 25 54 -16 q 24 200 24 77 q 40 367 24 290 q 59 436 52 423 q 105 464 73 464 q 119 319 136 464 z "},"n":{"ha":460,"x_min":22,"x_max":429,"o":"m 328 525 q 334 532 326 532 q 421 388 381 532 q 429 289 429 347 q 352 5 429 5 q 182 201 307 5 q 115 288 128 281 q 91 26 98 52 q 79 19 88 18 q 22 107 22 45 q 87 431 22 341 q 106 434 96 441 q 220 285 159 391 q 329 138 279 192 q 356 296 355 138 q 328 525 356 445 z "},"o":{"ha":504,"x_min":23,"x_max":482,"o":"m 292 508 q 473 330 418 508 q 482 248 482 294 q 325 8 482 64 q 224 3 277 -5 q 23 224 23 24 q 170 435 23 376 q 292 508 208 508 m 214 369 q 207 354 214 369 q 189 340 199 340 q 175 373 179 340 q 119 237 119 347 q 266 60 125 60 q 404 234 397 60 q 309 407 404 372 q 257 408 283 417 q 214 369 230 398 z "},"p":{"ha":509,"x_min":41,"x_max":491,"o":"m 69 463 q 170 489 109 489 q 408 414 325 489 q 491 197 491 338 q 425 48 491 104 q 268 -5 363 -5 q 197 20 227 -5 q 184 -278 194 -212 q 150 -300 178 -300 q 106 -278 113 -300 q 101 -151 101 -250 l 102 29 l 105 112 q 163 418 117 334 q 134 419 154 419 q 54 407 116 419 l 50 407 q 41 416 41 407 q 69 463 41 431 m 198 412 q 201 268 199 386 q 203 96 203 150 q 298 66 215 66 q 407 195 407 66 q 198 412 407 358 z "},"q":{"ha":525,"x_min":15,"x_max":499,"o":"m 359 497 q 456 460 424 497 q 471 429 471 439 q 467 415 471 419 q 415 427 439 427 q 179 382 245 431 q 97 232 97 331 q 166 106 97 150 q 250 83 208 83 q 325 107 292 82 q 362 211 357 133 q 414 370 369 377 q 444 311 448 363 q 443 103 440 258 q 466 -163 446 -53 q 499 -319 486 -273 q 482 -342 499 -342 q 369 47 368 -342 q 244 2 330 4 q 100 45 167 3 q 15 232 15 100 q 359 497 15 497 z "},"r":{"ha":507,"x_min":14,"x_max":494,"o":"m 125 -24 q 37 207 54 -24 q 14 243 14 227 q 26 267 14 269 q 35 265 29 265 q 58 418 35 368 q 163 490 87 484 q 276 492 178 492 q 414 467 354 492 q 494 366 494 433 q 340 224 494 277 q 264 208 324 218 q 444 53 331 174 q 467 -3 467 28 q 441 -41 467 -41 q 419 -35 429 -41 q 135 153 204 176 q 162 28 136 100 q 125 -24 172 -24 m 123 253 q 315 302 225 267 q 406 366 406 338 q 302 412 406 412 q 132 406 198 412 q 123 275 123 362 l 123 253 z "},"s":{"ha":496,"x_min":-1,"x_max":490,"o":"m 309 477 q 482 442 482 473 q 328 396 483 401 q 105 358 108 396 q 341 290 105 338 q 490 171 490 258 q 306 33 490 72 q 243 27 277 27 q 7 111 75 27 q -1 141 -1 128 q 158 206 -1 197 q 295 160 295 200 q 214 136 295 140 q 79 137 92 138 q 67 130 67 136 q 224 95 77 101 q 401 167 401 98 q 140 269 401 220 q 42 309 68 284 q 16 361 16 334 q 153 461 16 424 q 309 477 224 477 z "},"t":{"ha":571,"x_min":23,"x_max":563,"o":"m 101 545 q 112 537 113 545 q 106 522 111 530 q 104 500 102 511 q 283 438 118 451 q 478 529 362 529 q 563 456 563 520 q 326 350 561 361 q 254 -81 254 112 q 235 -128 254 -128 q 159 25 164 -131 q 231 353 159 186 q 62 406 122 368 q 23 463 23 430 q 101 545 23 529 m 374 438 q 488 480 470 438 q 465 490 486 490 q 374 438 417 490 z "},"u":{"ha":464,"x_min":14,"x_max":444,"o":"m 39 62 q 20 198 14 116 q 154 515 47 414 q 173 522 163 522 q 193 494 189 522 q 113 231 129 328 q 106 168 106 199 q 158 89 113 89 q 304 351 233 89 q 347 432 322 432 q 370 399 359 432 q 417 194 397 294 q 444 33 437 94 q 401 -5 444 -5 q 363 36 378 -5 q 337 232 349 77 q 250 51 313 117 q 148 0 197 0 l 146 0 q 39 62 71 2 z "},"v":{"ha":479,"x_min":-26,"x_max":460,"o":"m 33 493 q 91 446 59 499 q 205 118 123 392 q 219 90 208 105 l 363 424 q 404 494 388 486 q 411 496 405 496 q 439 481 418 496 q 460 454 460 467 q 429 358 460 427 l 302 74 q 271 18 288 38 q 201 1 239 1 q 160 16 177 1 q 125 110 143 30 q 8 414 82 266 q 33 493 -26 484 z "},"w":{"ha":573,"x_min":14,"x_max":553,"o":"m 315 -11 q 201 43 225 -11 q 138 31 165 31 q 47 66 81 31 q 14 164 14 102 q 107 395 14 309 q 217 456 197 469 q 228 418 236 443 q 82 193 82 326 q 159 94 82 94 l 169 94 q 154 191 154 151 q 193 300 154 253 q 300 353 235 353 q 359 323 338 353 q 380 254 380 296 q 257 74 380 155 q 335 50 270 50 q 444 118 411 57 q 470 298 477 180 q 388 489 463 412 q 409 522 368 523 q 477 476 432 522 q 553 267 553 416 q 496 73 553 146 q 315 -11 434 -11 m 219 180 q 231 121 219 139 q 315 261 309 178 l 315 264 q 289 294 315 293 q 229 235 255 294 q 219 180 219 203 z "},"x":{"ha":464,"x_min":27,"x_max":450,"o":"m 203 190 q 132 16 153 80 q 60 -43 114 -43 q 48 -12 48 -43 q 55 33 48 12 q 149 246 81 140 q 34 429 81 338 q 27 456 27 438 q 34 479 27 472 q 87 488 68 501 q 119 441 106 469 l 202 327 q 278 424 246 395 q 359 472 321 472 q 407 427 401 472 q 317 357 355 400 q 255 269 288 330 q 378 64 341 98 q 450 35 416 31 q 377 -25 426 -31 q 296 47 352 -25 l 203 190 z "},"y":{"ha":486,"x_min":-18,"x_max":483,"o":"m 166 532 q 176 515 180 531 q 153 460 172 503 q 117 368 134 418 q 82 182 82 256 q 106 117 85 117 q 247 355 151 222 q 414 505 351 505 q 481 390 483 505 q 355 79 481 238 q 192 -3 277 -3 q 153 5 170 -3 q 50 -347 115 -104 q 29 -358 45 -365 q -18 -273 -18 -336 q 68 35 -18 -165 q 9 182 9 86 q 150 526 9 321 q 166 532 155 532 m 191 77 q 373 227 289 77 q 420 385 420 323 q 397 414 420 414 q 186 94 338 414 q 191 77 180 78 z "},"z":{"ha":448,"x_min":15,"x_max":434,"o":"m 269 18 q 64 9 97 5 q 19 58 19 18 q 35 94 19 77 q 161 233 64 132 q 300 405 243 319 q 214 394 245 394 q 63 414 111 394 q 15 464 15 433 q 19 492 15 477 q 122 477 55 490 q 216 465 184 465 q 330 492 277 465 q 354 497 344 497 q 401 454 397 497 q 327 309 404 414 q 125 88 251 203 l 264 93 q 349 99 315 99 q 386 98 372 99 q 434 68 434 96 q 382 24 434 24 l 379 24 q 269 18 369 25 z "},"{":{"ha":419,"x_min":31,"x_max":339,"o":"m 335 974 q 304 916 339 943 q 186 840 227 892 q 155 758 155 799 q 205 668 155 719 q 254 581 254 617 q 192 479 254 509 l 196 479 q 247 378 247 469 q 213 286 247 352 q 179 197 179 220 q 306 45 179 103 l 256 4 q 129 72 200 4 q 60 182 60 137 q 98 277 60 212 q 136 380 136 340 q 83 433 136 407 q 31 469 31 458 q 87 514 31 480 q 144 561 144 548 q 90 644 144 593 q 36 732 36 694 q 115 900 36 834 q 335 974 197 968 z "},"|":{"ha":264,"x_min":55,"x_max":193,"o":"m 55 1007 l 63 1019 q 111 1029 75 1029 q 187 1007 172 1029 q 190 1003 190 1004 l 187 1000 q 178 693 178 840 q 183 372 178 581 q 193 -52 191 67 q 180 -71 191 -63 q 111 -89 157 -89 q 71 -78 79 -89 l 66 -65 q 67 -58 66 -61 q 79 390 79 116 q 71 833 79 628 l 55 1007 z "},"}":{"ha":419,"x_min":23,"x_max":336,"o":"m 115 10 q 90 69 70 53 q 208 206 208 126 q 160 290 208 244 q 112 374 112 336 q 174 466 112 436 l 170 466 q 119 568 119 476 q 158 665 119 593 q 197 759 197 736 q 177 854 197 820 q 66 939 149 903 q 23 979 23 965 q 27 986 23 983 q 242 906 165 986 q 302 765 302 844 q 266 669 302 732 q 230 566 230 606 q 283 513 230 538 q 336 476 336 487 q 279 431 336 465 q 222 384 222 397 q 268 310 222 359 q 315 222 315 261 q 115 10 315 66 z "},"~":{"ha":673,"x_min":16,"x_max":659,"o":"m 658 511 q 577 410 606 438 q 494 382 549 382 q 322 433 418 382 q 183 486 218 486 q 66 386 111 486 q 16 449 16 420 l 16 453 q 190 602 93 602 q 345 539 239 602 q 486 478 453 478 q 564 508 521 478 q 609 568 609 539 q 608 578 609 575 q 659 519 659 562 l 658 511 z "},"¡":{"ha":236,"x_min":48,"x_max":168,"o":"m 48 -162 q 77 143 66 -95 q 81 367 81 254 q 80 500 81 450 q 128 536 82 510 q 155 505 151 536 l 153 25 q 155 -77 153 -37 q 140 -182 155 -111 q 108 -211 130 -206 q 48 -162 59 -195 m 115 602 q 79 617 94 602 q 64 654 64 633 q 79 689 64 673 q 113 705 94 705 q 151 691 135 705 q 168 657 168 677 q 115 602 168 602 z "},"¢":{"ha":407,"x_min":20,"x_max":386,"o":"m 205 793 q 243 774 227 793 q 248 726 246 770 q 250 671 248 700 l 286 672 q 368 648 355 672 q 380 611 380 624 q 376 578 380 595 q 336 591 356 569 q 279 610 315 612 l 251 601 q 254 431 252 543 l 256 314 q 298 329 270 319 q 336 342 320 337 l 371 342 q 386 313 386 331 l 386 309 q 258 249 383 260 q 261 164 261 190 q 250 134 261 143 q 226 132 243 132 q 199 134 206 132 q 178 160 185 144 l 178 247 q 20 407 20 259 q 64 553 20 486 q 191 656 110 624 q 202 791 195 737 l 205 793 m 98 404 q 182 311 98 327 l 182 321 q 187 582 182 407 q 98 404 98 515 z "},"£":{"ha":672,"x_min":49,"x_max":605,"o":"m 556 -47 q 493 -29 522 -47 q 382 54 460 -9 q 268 136 308 115 q 124 9 217 9 q 49 90 49 9 q 82 183 49 141 q 151 224 115 224 q 249 208 197 224 q 290 395 275 281 l 243 393 q 166 406 214 393 q 119 454 119 421 q 145 492 119 488 l 145 497 q 176 481 145 488 q 267 465 229 465 l 297 465 l 302 572 q 303 600 303 580 l 298 724 q 311 827 298 803 q 408 881 338 881 q 522 847 459 881 q 578 753 578 814 q 577 743 578 743 q 465 798 522 798 q 395 764 411 798 q 378 631 382 736 q 363 471 374 545 q 526 486 463 485 l 541 488 q 561 484 556 488 q 566 456 566 477 q 552 403 566 409 q 469 410 500 410 q 349 397 423 410 q 294 197 330 320 q 599 -22 515 89 q 605 -35 605 -31 q 556 -47 605 -47 m 232 151 q 161 171 203 171 q 120 153 138 171 q 100 109 100 134 q 128 64 100 64 q 232 151 206 64 z "},"¤":{"ha":660,"x_min":68,"x_max":606,"o":"m 136 331 q 110 447 110 380 q 149 591 110 532 l 149 598 q 83 675 81 640 q 119 711 83 711 q 134 697 122 711 q 165 669 152 677 l 202 645 q 319 685 251 677 q 391 700 342 700 q 491 658 441 700 q 551 699 532 673 q 570 715 564 715 q 606 682 606 715 q 602 664 606 672 q 574 635 595 650 q 537 600 548 616 q 580 447 580 526 q 538 323 580 385 q 590 275 549 316 q 602 249 602 262 q 587 225 602 236 q 557 214 572 214 q 540 229 555 214 q 491 272 513 258 l 486 272 q 347 225 419 225 q 191 267 254 225 q 146 226 185 261 q 117 211 133 211 q 82 224 97 211 q 68 248 68 238 q 135 309 73 263 l 136 331 m 284 584 q 318 680 286 599 q 278 627 282 629 q 199 576 222 604 q 168 463 168 537 q 214 335 168 384 q 339 285 261 285 q 452 328 397 285 q 468 341 460 338 q 527 467 527 397 q 488 590 527 537 q 470 610 477 596 q 391 647 433 647 q 347 634 360 647 l 284 584 z "},"¥":{"ha":488,"x_min":-14,"x_max":505,"o":"m 3 264 q -4 275 -4 264 q 6 304 -4 284 q 22 324 16 323 q 114 330 39 327 q 47 481 47 394 q 236 898 47 692 q 249 909 248 909 q 262 892 262 909 q 220 800 262 876 q 119 479 119 624 q 189 374 119 385 l 203 433 q 442 850 313 850 q 505 671 505 850 q 361 331 505 448 q 476 336 433 331 q 490 311 490 338 q 476 291 490 304 q 452 277 462 279 q 397 275 429 275 q 250 277 307 275 l 234 193 q 458 197 408 193 q 474 186 474 199 q 456 160 474 178 q 431 142 439 142 q 225 138 376 138 q 210 -40 210 36 q 184 -83 210 -78 q 140 -56 163 -77 q 115 -17 115 -35 q 139 138 115 21 l -1 138 q -14 150 -14 138 q -4 177 -14 160 q 10 193 5 193 l 151 193 l 169 277 q 9 265 40 271 l 3 264 m 414 743 q 271 363 316 652 q 404 496 360 397 q 444 686 444 582 q 431 751 444 704 l 414 743 z "},"¦":{"ha":191,"x_min":54,"x_max":156,"o":"m 54 23 q 56 389 54 261 l 85 391 q 128 395 114 395 q 144 393 144 395 l 148 256 l 156 22 q 129 -33 156 -18 q 66 -12 90 -33 l 54 23 m 73 970 q 92 981 82 983 q 130 951 111 974 q 136 878 136 919 l 143 505 q 85 494 123 494 q 56 501 56 494 l 58 844 q 73 970 58 943 z "},"§":{"ha":552,"x_min":14,"x_max":537,"o":"m 149 -26 q 64 -54 98 -34 q 22 -127 22 -78 q 121 -201 22 -174 q 250 -222 193 -222 q 432 -164 359 -222 q 509 -1 509 -102 q 441 123 509 81 l 427 129 q 537 359 537 259 q 404 532 537 472 q 256 602 333 567 q 164 654 183 635 q 149 689 149 671 q 198 750 149 728 q 272 767 235 767 q 412 704 383 767 q 430 653 428 667 q 470 667 446 653 q 512 740 512 699 q 458 823 490 799 q 311 858 410 858 q 140 813 213 858 q 58 676 58 762 q 149 522 58 581 q 60 421 102 490 q 14 283 14 347 q 77 169 14 212 q 213 113 116 143 q 345 60 311 82 q 402 -36 402 24 q 248 -118 402 -116 q 123 -92 123 -118 q 154 -45 123 -92 l 156 -39 q 149 -26 156 -33 m 451 342 q 340 158 451 288 l 335 153 q 170 214 234 170 q 108 301 108 256 q 159 416 108 354 q 255 495 204 471 l 359 448 q 451 342 451 406 z "},"¨":{"ha":468,"x_min":76,"x_max":398,"o":"m 138 686 q 180 667 163 686 q 198 624 198 649 q 180 583 198 601 q 140 564 163 564 q 96 581 114 564 q 76 620 76 597 q 138 686 76 686 m 338 690 q 380 671 363 690 q 398 629 398 653 q 380 587 398 606 q 340 569 363 569 q 296 585 314 569 q 276 624 276 601 q 338 690 276 690 z "},"©":{"ha":920,"x_min":26,"x_max":891,"o":"m 611 408 q 629 371 629 395 q 418 301 629 301 q 292 369 358 301 q 220 522 220 441 q 298 703 220 633 q 516 777 380 777 q 608 749 593 777 q 623 707 623 720 q 617 670 623 694 q 576 660 592 660 q 508 704 537 660 l 434 684 q 308 518 308 654 q 352 419 308 467 q 439 372 395 372 q 571 408 454 372 l 611 408 m 298 838 q 166 734 224 837 q 116 562 116 643 q 218 323 116 425 q 459 220 321 220 q 694 326 598 220 q 789 570 789 429 q 675 803 789 709 q 627 837 648 823 q 658 746 658 809 q 471 854 573 840 l 304 814 q 293 825 293 814 l 298 838 m 165 840 q 491 970 302 970 q 774 841 655 970 q 891 550 891 715 q 766 239 891 371 q 459 104 638 104 q 159 229 290 104 q 26 524 26 355 q 165 840 26 709 z "},"ª":{"ha":553,"x_min":153,"x_max":400,"o":"m 326 1006 q 374 844 349 1006 q 400 683 400 718 q 392 678 400 678 q 356 717 365 680 l 341 772 q 233 768 296 767 q 190 670 200 673 q 181 670 186 668 q 157 722 152 687 q 174 787 157 728 q 153 831 153 797 q 155 834 153 834 q 159 834 157 835 q 190 822 172 822 q 297 994 250 947 q 326 1006 310 1006 m 251 814 l 334 816 q 308 936 313 936 q 251 814 295 928 z "},"«":{"ha":570,"x_min":40,"x_max":518,"o":"m 229 528 q 275 452 279 499 q 179 250 267 358 q 307 32 301 125 q 264 -20 307 -20 q 214 52 242 -20 q 40 250 176 142 q 109 321 53 269 q 191 436 155 364 q 207 486 195 444 q 229 528 216 518 m 440 528 q 486 452 492 517 q 445 329 479 382 q 416 289 438 318 q 390 250 398 266 q 518 32 498 140 q 477 -20 509 -20 q 425 52 453 -20 q 251 250 387 142 q 440 528 395 353 z "},"¬":{"ha":675,"x_min":27,"x_max":640,"o":"m 66 513 q 115 524 81 524 q 543 517 472 517 q 597 586 561 586 q 614 554 612 586 q 628 467 615 541 q 640 343 640 401 q 631 293 640 325 q 572 254 583 254 q 544 321 548 254 l 541 418 q 540 436 541 431 q 323 439 537 439 l 124 439 q 27 467 27 439 q 66 513 27 484 z "},"®":{"ha":920,"x_min":26,"x_max":891,"o":"m 400 549 q 490 598 450 563 q 540 689 540 641 q 484 733 540 733 q 448 729 461 733 q 392 714 406 721 l 386 711 l 386 587 q 391 549 386 563 l 400 549 m 316 701 q 302 693 303 693 q 252 673 257 673 q 216 701 216 673 q 218 709 216 707 l 260 736 q 452 793 375 793 q 562 770 507 793 q 629 697 629 743 q 608 619 629 646 q 502 524 603 612 q 612 406 570 461 l 635 372 q 650 326 650 339 q 637 321 650 321 q 577 350 600 321 l 477 460 q 401 488 453 484 l 399 488 q 386 469 386 488 l 386 371 q 338 290 386 290 q 321 296 325 290 q 316 701 316 425 m 298 838 q 166 734 224 837 q 116 562 116 643 q 218 323 116 425 q 459 220 321 220 q 694 326 598 220 q 789 570 789 429 q 675 803 789 709 q 628 836 648 823 q 651 746 651 804 q 471 854 574 840 l 304 814 q 293 825 293 814 l 298 838 m 165 840 q 491 970 302 970 q 774 841 655 970 q 891 550 891 715 q 766 239 891 371 q 459 104 638 104 q 159 229 290 104 q 26 524 26 355 q 165 840 26 709 z "},"¯":{"ha":467,"x_min":48,"x_max":409,"o":"m 382 755 q 391 757 385 757 q 405 751 401 757 q 409 715 409 741 q 397 644 409 655 q 341 652 374 652 l 179 635 q 77 660 122 635 q 48 721 48 675 q 71 775 48 766 l 71 771 q 85 758 71 766 q 191 733 132 733 q 285 744 223 733 q 382 755 349 755 z "},"°":{"ha":350,"x_min":20,"x_max":329,"o":"m 276 864 q 280 865 277 865 q 309 850 294 865 q 329 803 329 831 q 273 665 329 720 q 154 614 222 614 q 98 624 121 614 q 72 595 82 597 q 50 643 52 601 q 52 663 50 652 q 20 732 20 717 q 72 853 20 801 q 201 908 125 908 q 276 864 266 908 m 126 690 q 133 682 126 682 l 153 682 q 231 710 191 682 q 277 790 277 743 q 252 819 277 819 q 126 690 199 819 m 73 732 q 76 729 73 729 q 81 732 79 729 q 163 839 94 756 l 163 840 q 162 846 163 844 q 102 802 130 838 q 73 732 75 766 z "},"±":{"ha":586,"x_min":36,"x_max":525,"o":"m 488 595 q 501 596 492 596 q 521 590 515 596 q 525 554 525 580 q 508 484 525 494 q 435 490 477 490 q 326 482 399 490 l 326 464 q 349 315 326 386 l 351 301 q 319 279 351 279 q 265 290 290 279 q 245 310 250 295 q 231 473 231 381 l 214 473 q 76 498 137 473 q 36 559 36 514 q 66 614 36 604 l 66 611 q 87 597 66 604 q 233 571 151 571 q 236 663 236 629 q 233 742 236 686 q 289 754 237 754 l 308 754 q 337 745 337 754 l 337 743 q 338 693 338 726 q 333 579 338 652 q 486 595 433 593 l 488 595 m 469 248 q 481 249 473 249 q 498 243 495 249 q 504 207 504 234 q 489 136 504 147 q 418 143 459 143 l 214 126 q 86 151 141 126 q 48 212 48 168 q 76 267 48 258 l 76 262 q 96 250 76 258 q 229 225 155 225 q 347 235 269 225 q 469 248 427 247 z "},"²":{"ha":521,"x_min":15,"x_max":487,"o":"m 15 507 q 87 574 18 552 l 256 736 q 341 868 341 811 q 288 909 341 907 q 276 911 284 911 q 153 865 211 911 l 146 846 q 115 812 138 812 q 84 860 84 816 l 85 880 q 252 990 99 990 q 281 989 272 990 q 397 857 397 974 q 231 623 397 781 q 195 587 224 616 q 240 585 229 585 q 292 574 258 583 q 358 562 340 562 l 374 562 q 439 583 399 564 q 468 602 459 597 q 487 570 487 598 q 342 489 425 491 l 125 498 q 87 488 121 498 q 43 473 54 473 q 15 505 15 473 l 15 507 z "},"³":{"ha":420,"x_min":31,"x_max":396,"o":"m 97 918 q 135 876 97 905 l 107 875 q 92 872 98 872 q 50 921 50 872 q 92 996 50 983 q 178 1011 138 1011 q 386 864 379 1011 q 333 753 383 787 q 396 629 396 715 q 201 478 396 478 q 74 522 125 478 q 31 599 31 559 q 46 640 31 640 q 77 619 64 640 q 207 549 124 549 q 275 567 244 549 q 315 633 315 591 q 265 701 315 678 q 172 689 233 689 q 102 704 132 689 q 73 739 73 719 q 123 785 73 770 q 182 794 154 794 q 260 783 227 794 q 306 864 306 796 q 176 940 306 940 q 117 929 143 940 l 117 930 q 97 918 97 922 z "},"´":{"ha":328,"x_min":4,"x_max":322,"o":"m 14 624 q 90 667 43 624 q 265 774 210 774 q 322 711 322 774 q 288 667 322 667 q 52 562 277 667 q 4 624 13 562 l 14 624 z "},"µ":{"ha":464,"x_min":20,"x_max":444,"o":"m 130 -170 q 97 -186 117 -186 q 44 -134 71 -186 q 20 26 20 -86 l 20 184 q 154 515 20 353 q 173 522 163 522 q 193 494 189 522 q 126 231 142 328 q 120 168 120 186 q 165 96 120 96 q 241 180 206 96 q 304 371 239 176 q 347 432 329 432 q 370 399 359 432 q 437 135 425 253 l 444 66 l 444 53 q 401 -5 444 -5 q 366 0 391 -5 q 349 50 349 23 q 342 129 349 85 l 337 184 q 250 44 313 96 q 148 0 197 0 l 146 0 q 123 1 130 0 q 126 -87 123 -33 q 130 -170 130 -152 z "},"¶":{"ha":663,"x_min":27,"x_max":643,"o":"m 336 -16 q 315 -58 334 -58 q 273 -45 294 -58 q 252 -12 250 -31 q 265 212 255 63 q 277 448 275 353 q 230 443 249 443 q 89 530 153 443 q 27 707 27 614 q 77 903 27 820 q 227 1014 132 995 q 341 1000 246 1013 q 507 989 416 989 l 550 996 q 610 1003 589 1003 q 643 989 643 1003 q 525 905 643 926 q 565 340 565 642 q 554 -35 565 195 q 528 -75 552 -75 q 489 -63 507 -75 q 470 -30 469 -50 q 483 294 483 160 q 455 829 483 543 q 441 901 455 848 q 376 909 407 903 q 305 920 340 917 q 362 518 362 729 q 351 250 362 412 q 336 -16 338 60 z "},"·":{"ha":251,"x_min":15,"x_max":236,"o":"m 126 619 q 203 587 171 619 q 236 510 236 555 q 203 433 236 467 q 129 400 172 400 q 49 430 83 400 q 15 503 15 460 q 46 585 15 552 q 126 619 77 619 z "},"¸":{"ha":237,"x_min":1,"x_max":212,"o":"m 104 24 q 129 28 115 28 q 172 -3 165 28 q 131 -61 167 -22 q 212 -208 212 -140 q 209 -236 212 -227 q 113 -309 193 -309 q 17 -262 60 -309 q 1 -225 1 -248 q 35 -172 1 -188 q 113 -239 40 -225 q 151 -228 130 -239 q 154 -211 154 -216 q 57 -94 134 -148 q 44 -64 44 -82 q 57 -32 44 -45 q 104 24 87 -3 z "},"¹":{"ha":179,"x_min":14,"x_max":162,"o":"m 62 856 q 14 880 33 856 l 14 895 q 79 997 73 922 q 105 1017 87 1017 q 150 994 142 1017 q 153 863 151 952 l 162 511 q 133 489 149 489 q 96 498 110 489 q 90 532 90 507 q 87 618 90 561 l 84 704 q 79 860 81 754 q 62 856 66 856 z "},"º":{"ha":566,"x_min":132,"x_max":435,"o":"m 310 1006 q 430 899 393 1006 q 436 850 436 877 q 332 706 436 739 q 265 703 300 698 q 133 835 133 716 q 230 962 133 927 q 310 1006 254 1006 m 259 923 q 254 914 259 923 q 242 905 248 905 q 233 925 235 905 q 196 844 196 909 q 293 737 200 737 q 384 842 379 737 q 321 945 384 924 q 287 946 304 951 q 259 923 269 940 z "},"»":{"ha":570,"x_min":40,"x_max":518,"o":"m 329 528 q 351 486 342 518 q 366 436 363 444 q 450 321 403 364 q 518 250 505 269 q 345 52 382 142 q 294 -20 316 -20 q 251 32 251 -20 q 379 250 257 125 q 283 452 291 358 q 329 528 279 499 m 118 528 q 307 250 162 353 q 133 52 171 142 q 80 -20 104 -20 q 40 32 49 -20 q 168 250 60 140 q 142 289 159 266 q 113 329 120 318 q 72 452 79 382 q 118 528 66 517 z "},"¼":{"ha":716,"x_min":56,"x_max":667,"o":"m 530 850 q 541 854 534 854 q 583 827 557 854 q 610 782 610 800 q 609 775 610 777 q 141 18 519 648 q 125 9 135 9 q 82 28 107 9 q 56 62 56 47 q 62 78 56 72 q 462 717 242 334 l 530 850 m 601 -35 q 545 -11 554 -35 q 537 106 537 20 l 537 136 l 536 136 q 397 196 449 136 q 391 248 391 214 q 456 444 391 348 q 474 458 463 458 q 492 437 492 458 q 479 390 492 422 l 480 390 q 454 265 454 328 q 460 218 454 243 q 530 189 496 189 l 536 189 l 537 235 q 594 468 537 468 q 667 293 667 468 q 658 199 667 227 q 608 146 646 164 q 626 4 610 57 l 625 4 q 627 -4 627 1 q 608 -35 627 -27 l 601 -35 m 112 754 q 63 779 82 754 l 63 793 q 128 896 122 821 q 155 916 136 916 q 199 893 192 916 q 202 761 200 850 l 212 410 q 182 387 199 387 q 145 397 160 387 q 140 431 140 406 q 137 517 139 460 l 134 603 q 128 758 132 653 q 112 754 116 754 m 601 332 q 602 227 601 256 q 609 297 609 254 q 602 383 609 354 q 601 332 601 368 z "},"½":{"ha":815,"x_min":22,"x_max":805,"o":"m 333 12 q 405 79 336 58 l 574 241 q 659 374 659 317 q 606 415 659 412 q 594 416 602 416 q 471 371 529 416 l 463 351 q 433 318 456 318 q 402 366 402 321 l 404 386 q 570 496 416 496 q 600 494 590 496 q 715 363 715 479 q 549 127 715 287 q 513 93 543 122 q 558 90 547 90 q 609 79 576 88 q 676 68 657 68 l 692 68 q 756 89 717 69 q 785 107 777 103 q 805 75 805 104 q 661 -5 743 -3 l 443 4 q 405 -7 438 4 q 361 -21 372 -21 q 333 11 333 -21 l 333 12 m 519 876 q 530 880 523 880 q 572 853 546 880 q 600 808 600 826 q 598 802 600 803 q 130 45 508 674 q 115 36 124 36 q 71 54 96 36 q 45 89 45 73 q 51 104 45 98 q 451 743 231 360 l 519 876 m 71 760 q 22 785 41 760 l 22 799 q 87 901 81 827 q 113 921 95 921 q 158 899 151 921 q 161 766 159 856 l 170 415 q 141 393 157 393 q 104 403 118 393 q 98 436 98 411 q 96 522 98 465 l 92 608 q 87 764 90 659 q 71 760 75 760 z "},"¾":{"ha":811,"x_min":39,"x_max":747,"o":"m 627 903 q 639 907 631 907 q 681 880 654 907 q 708 835 708 852 q 707 828 708 829 q 239 71 616 701 q 223 62 233 62 q 180 81 205 62 q 154 115 154 99 q 159 131 154 125 q 559 770 340 387 l 627 903 m 98 822 q 132 785 98 810 l 106 783 q 93 781 98 781 q 56 823 56 781 q 93 892 56 878 q 170 904 132 904 q 355 774 349 904 q 308 675 352 705 q 363 564 363 642 q 191 429 363 429 q 77 469 123 429 q 39 538 39 502 q 52 575 39 575 q 79 555 68 575 q 195 493 123 493 q 257 509 229 493 q 293 568 293 530 q 247 629 293 607 q 165 618 218 618 q 103 631 129 618 q 77 663 77 645 q 174 711 77 711 q 243 701 217 711 q 283 774 283 713 q 168 842 283 842 q 115 832 142 842 l 115 833 q 98 822 98 825 m 680 -29 q 625 -5 633 -29 q 616 111 616 25 l 616 142 l 615 142 q 476 201 529 142 q 471 253 471 220 q 536 450 471 353 q 554 464 542 464 q 572 443 572 464 q 558 396 572 427 l 559 396 q 533 271 533 334 q 540 224 533 249 q 610 195 576 195 l 615 195 l 616 240 q 673 473 616 473 q 747 298 747 473 q 737 205 747 232 q 687 151 726 170 q 705 9 690 63 l 704 9 q 707 1 707 7 q 687 -29 707 -22 l 680 -29 m 680 338 q 682 232 680 261 q 688 302 688 260 q 682 389 688 359 q 680 338 680 374 z "},"¿":{"ha":493,"x_min":29,"x_max":478,"o":"m 343 -9 q 396 5 371 5 q 458 -26 433 5 q 478 -84 478 -53 q 421 -203 478 -153 q 266 -258 359 -258 q 29 -28 29 -258 q 146 157 29 35 q 262 351 262 280 q 237 415 262 384 q 174 450 211 450 l 164 450 l 160 478 l 172 495 l 181 498 q 213 503 201 503 q 306 460 275 503 q 348 357 348 414 q 247 136 348 243 q 112 -38 112 9 q 270 -180 112 -159 q 418 -64 418 -159 q 343 -9 418 -40 m 237 590 q 199 606 215 590 q 183 644 183 622 q 199 682 183 665 q 235 698 215 698 q 275 684 258 698 q 292 648 292 669 q 237 590 292 590 z "},"À":{"ha":754,"x_min":18,"x_max":705,"o":"m 703 -7 q 691 -46 703 -43 q 634 -52 647 -52 q 583 -43 606 -52 q 430 250 549 91 q 354 239 383 242 q 159 285 244 247 l 157 14 q 111 -17 150 -14 q 67 26 73 -20 q 50 400 44 227 q 18 481 18 446 q 69 541 18 526 q 210 879 111 754 q 446 1007 311 1007 q 705 415 699 1007 l 705 343 q 703 211 703 243 l 703 -7 m 442 910 q 283 805 358 910 q 171 541 210 704 q 205 535 193 538 q 495 327 342 484 q 618 155 569 227 l 623 495 q 442 910 623 910 m 176 467 q 165 373 167 406 q 380 311 252 311 q 176 467 267 439 m 469 1156 q 418 1066 456 1066 q 182 1171 195 1171 l 178 1171 q 160 1164 172 1171 q 148 1207 148 1180 l 148 1216 q 182 1257 148 1257 q 220 1248 196 1257 q 315 1202 238 1239 q 459 1150 414 1156 l 469 1156 z "},"Á":{"ha":754,"x_min":18,"x_max":705,"o":"m 703 -7 q 691 -46 703 -43 q 634 -52 647 -52 q 583 -43 606 -52 q 430 250 549 91 q 354 239 383 242 q 159 285 244 247 l 157 -20 q 112 -47 150 -47 l 60 -47 q 39 -18 39 -47 q 40 -8 39 -12 l 44 265 q 50 400 44 342 q 18 481 18 446 q 69 541 18 526 q 210 879 111 754 q 446 1007 311 1007 q 705 415 699 1007 l 705 343 q 703 211 703 243 l 703 -7 m 442 910 q 283 805 358 910 q 171 541 210 704 q 205 535 193 538 q 495 327 342 484 q 618 155 569 227 l 623 495 q 442 910 623 910 m 176 467 q 165 373 167 406 q 380 311 252 311 q 176 467 267 439 m 265 1128 q 342 1171 294 1128 q 517 1278 461 1278 q 574 1216 574 1278 q 539 1171 574 1171 q 303 1066 529 1171 q 256 1128 264 1066 l 265 1128 z "},"Â":{"ha":754,"x_min":18,"x_max":705,"o":"m 703 -7 q 691 -46 703 -43 q 634 -52 647 -52 q 583 -43 606 -52 q 430 250 549 91 q 354 239 383 242 q 159 285 244 247 l 157 14 q 111 -17 150 -14 q 67 26 73 -20 q 50 400 44 227 q 18 481 18 446 q 69 541 18 526 q 210 879 111 754 q 446 1007 311 1007 q 705 415 699 1007 l 705 343 q 703 211 703 243 l 703 -7 m 442 910 q 283 805 358 910 q 171 541 210 704 q 205 535 193 538 q 495 327 342 484 q 618 155 569 227 l 623 495 q 442 910 623 910 m 176 467 q 165 373 167 406 q 380 311 252 311 q 176 467 267 439 m 412 1102 q 345 1028 380 1050 q 266 1002 303 1002 q 226 1025 242 1002 q 210 1071 210 1047 q 216 1092 210 1084 q 252 1085 230 1085 q 339 1143 298 1085 q 374 1219 357 1166 q 420 1257 378 1257 q 462 1228 451 1257 q 499 1133 486 1150 q 580 1100 520 1100 q 609 1063 609 1100 q 580 1013 609 1013 q 460 1052 505 1013 q 412 1102 418 1088 z "},"Ã":{"ha":754,"x_min":18,"x_max":705,"o":"m 703 -7 q 691 -46 703 -43 q 634 -52 647 -52 q 583 -43 606 -52 q 430 250 549 91 q 354 239 383 242 q 159 285 244 247 l 157 14 q 111 -17 150 -14 q 67 26 73 -20 q 50 400 44 227 q 18 481 18 446 q 69 541 18 526 q 210 879 111 754 q 446 1007 311 1007 q 705 415 699 1007 l 705 343 q 703 211 703 243 l 703 -7 m 442 910 q 283 805 358 910 q 171 541 210 704 q 205 535 193 538 q 495 327 342 484 q 618 155 569 227 l 623 495 q 442 910 623 910 m 176 467 q 165 373 167 406 q 380 311 252 311 q 176 467 267 439 m 239 1088 q 208 1128 208 1112 q 310 1234 226 1234 q 376 1192 320 1234 q 452 1151 432 1151 q 498 1168 475 1151 q 523 1209 523 1186 q 522 1218 523 1215 q 552 1181 552 1206 q 524 1113 552 1140 q 456 1086 496 1086 q 372 1121 429 1086 q 306 1156 315 1156 q 239 1088 264 1156 z "},"Ä":{"ha":754,"x_min":18,"x_max":705,"o":"m 703 -7 q 691 -46 703 -43 q 634 -52 647 -52 q 583 -43 606 -52 q 430 250 549 91 q 354 239 383 242 q 159 285 244 247 l 157 14 q 111 -17 150 -14 q 67 26 73 -20 q 50 400 44 227 q 18 481 18 446 q 69 541 18 526 q 210 879 111 754 q 446 1007 311 1007 q 705 415 699 1007 l 705 343 q 703 211 703 243 l 703 -7 m 442 910 q 283 805 358 910 q 171 541 210 704 q 205 535 193 538 q 495 327 342 484 q 618 155 569 227 l 623 495 q 442 910 623 910 m 176 467 q 165 373 167 406 q 380 311 252 311 q 176 467 267 439 m 331 1190 q 373 1172 355 1190 q 391 1128 391 1154 q 373 1088 391 1105 q 332 1069 355 1069 q 288 1085 307 1069 q 269 1124 269 1101 q 331 1190 269 1190 m 531 1194 q 573 1176 555 1194 q 591 1133 591 1158 q 573 1092 591 1110 q 532 1074 555 1074 q 488 1089 507 1074 q 469 1128 469 1105 q 531 1194 469 1194 z "},"Å":{"ha":754,"x_min":18,"x_max":705,"o":"m 703 -7 q 691 -46 703 -43 q 634 -52 647 -52 q 583 -43 606 -52 q 430 250 549 91 q 354 239 383 242 q 159 285 244 247 l 157 14 q 111 -17 150 -14 q 67 26 73 -20 q 50 400 44 227 q 18 481 18 446 q 69 541 18 526 q 210 879 111 754 q 446 1007 311 1007 q 705 415 699 1007 l 705 343 q 703 211 703 243 l 703 -7 m 442 910 q 283 805 358 910 q 171 541 210 704 q 205 535 193 538 q 495 327 342 484 q 618 155 569 227 l 623 495 q 442 910 623 910 m 176 467 q 165 373 167 406 q 380 311 252 311 q 176 467 267 439 m 424 1241 q 492 1212 463 1241 q 520 1142 520 1182 q 492 1076 520 1105 q 426 1046 463 1046 q 355 1072 385 1046 q 323 1135 323 1098 q 424 1241 323 1241 m 422 1196 q 368 1139 368 1196 q 386 1105 368 1119 q 424 1090 401 1090 q 460 1107 445 1090 q 475 1143 475 1122 q 460 1181 475 1164 q 422 1196 445 1196 z "},"Æ":{"ha":1178,"x_min":18,"x_max":1146,"o":"m 610 637 q 442 910 610 910 q 283 805 358 910 q 171 541 210 704 q 205 535 193 538 q 495 327 342 484 q 515 299 505 313 l 471 193 q 430 250 452 222 q 354 239 383 242 q 159 285 244 247 l 157 -20 q 112 -47 150 -47 l 60 -47 q 39 -18 39 -47 q 40 -8 39 -12 l 44 265 q 50 400 44 342 q 18 481 18 446 q 69 541 18 526 q 210 879 111 754 q 446 1007 311 1007 q 654 765 629 1007 l 610 637 m 165 373 q 380 311 252 311 q 176 467 267 439 q 165 373 167 406 m 1050 911 q 929 930 1000 930 q 763 884 836 930 q 666 739 666 820 q 741 603 680 643 q 919 566 803 563 q 1006 515 1036 568 q 849 494 972 484 q 647 449 726 505 q 563 271 568 393 q 652 94 563 162 q 860 33 748 33 q 1085 145 989 33 q 1126 176 1116 176 q 1139 117 1139 176 q 1106 43 1139 77 q 869 -54 1008 -54 q 582 28 698 -54 q 454 270 454 117 q 663 562 454 475 q 553 744 557 633 q 677 949 559 876 q 926 1012 781 1012 q 1084 985 1004 1012 q 1146 871 1146 966 q 1086 780 1146 780 q 1055 785 1099 780 q 1092 866 1092 814 q 1050 911 1092 879 z "},"Ç":{"ha":850,"x_min":20,"x_max":852,"o":"m 379 -43 q 158 81 258 -20 q 20 431 20 221 q 152 796 20 626 q 553 997 308 997 q 775 924 696 997 q 852 730 852 852 q 787 585 852 637 q 640 541 730 541 q 532 581 576 541 q 490 675 490 620 q 534 762 490 724 q 641 780 597 807 q 564 682 564 758 q 579 639 564 658 q 634 614 599 614 q 724 638 688 614 q 773 736 773 670 q 557 926 773 905 q 241 755 392 926 q 123 444 123 610 q 248 149 123 279 q 483 49 351 49 q 688 95 595 49 q 799 119 781 142 q 710 24 818 96 q 470 -48 610 -43 q 441 -83 460 -63 q 522 -230 522 -162 q 519 -258 522 -248 q 423 -330 504 -330 q 328 -284 371 -330 q 312 -247 312 -269 q 345 -194 312 -210 q 424 -260 351 -247 q 461 -250 440 -260 q 465 -233 465 -238 q 368 -116 444 -170 q 355 -85 355 -104 q 368 -54 355 -66 q 379 -43 374 -48 z "},"È":{"ha":724,"x_min":12,"x_max":704,"o":"m 650 864 q 608 909 650 897 q 487 928 558 928 q 321 882 394 928 q 224 737 224 818 q 299 601 237 641 q 477 564 361 561 q 523 513 526 566 q 407 492 516 482 q 205 447 284 503 q 121 269 125 391 q 210 92 121 160 q 418 31 306 31 q 610 72 547 31 q 684 113 673 113 q 697 75 697 113 q 622 -17 697 21 q 427 -56 546 -56 q 140 26 256 -56 q 12 268 12 115 q 221 560 12 473 q 111 742 115 631 q 235 947 117 873 q 484 1010 338 1010 q 642 983 562 1010 q 704 869 704 964 q 644 778 704 778 q 612 783 656 778 q 650 864 650 812 m 465 1156 q 415 1066 452 1066 q 179 1171 191 1171 l 175 1171 q 157 1164 168 1171 q 144 1207 144 1180 l 144 1216 q 179 1257 144 1257 q 216 1248 193 1257 q 312 1202 235 1239 q 456 1150 411 1156 l 465 1156 z "},"É":{"ha":724,"x_min":12,"x_max":704,"o":"m 650 864 q 608 909 650 897 q 487 928 558 928 q 321 882 394 928 q 224 737 224 818 q 299 601 237 641 q 477 564 361 561 q 523 513 526 566 q 407 492 516 482 q 205 447 284 503 q 121 269 125 391 q 210 92 121 160 q 418 31 306 31 q 610 72 547 31 q 684 113 673 113 q 697 75 697 113 q 622 -17 697 21 q 427 -56 546 -56 q 140 26 256 -56 q 12 268 12 115 q 221 560 12 473 q 111 742 115 631 q 235 947 117 873 q 484 1010 338 1010 q 642 983 562 1010 q 704 869 704 964 q 644 778 704 778 q 612 783 656 778 q 650 864 650 812 m 262 1128 q 338 1171 291 1128 q 513 1278 458 1278 q 570 1216 570 1278 q 536 1171 570 1171 q 300 1066 526 1171 q 252 1128 261 1066 l 262 1128 z "},"Ê":{"ha":724,"x_min":12,"x_max":704,"o":"m 650 864 q 608 909 650 897 q 487 928 558 928 q 321 882 394 928 q 224 737 224 818 q 299 601 237 641 q 477 564 361 561 q 523 513 526 566 q 407 492 516 482 q 205 447 284 503 q 121 269 125 391 q 210 92 121 160 q 418 31 306 31 q 610 72 547 31 q 684 113 673 113 q 697 75 697 113 q 622 -17 697 21 q 427 -56 546 -56 q 140 26 256 -56 q 12 268 12 115 q 221 560 12 473 q 111 742 115 631 q 235 947 117 873 q 484 1010 338 1010 q 642 983 562 1010 q 704 869 704 964 q 644 778 704 778 q 612 783 656 778 q 650 864 650 812 m 451 1129 q 385 1055 420 1078 q 305 1029 342 1029 q 265 1053 281 1029 q 250 1098 250 1074 q 255 1119 250 1112 q 291 1112 269 1112 q 378 1171 337 1112 q 414 1246 396 1193 q 459 1284 418 1284 q 501 1255 490 1284 q 538 1160 526 1177 q 619 1127 559 1127 q 648 1090 648 1127 q 619 1040 648 1040 q 500 1079 544 1040 q 451 1129 458 1115 z "},"Ë":{"ha":724,"x_min":12,"x_max":704,"o":"m 650 864 q 608 909 650 897 q 487 928 558 928 q 321 882 394 928 q 224 737 224 818 q 299 601 237 641 q 477 564 361 561 q 523 513 526 566 q 407 492 516 482 q 205 447 284 503 q 121 269 125 391 q 210 92 121 160 q 418 31 306 31 q 610 72 547 31 q 684 113 673 113 q 697 75 697 113 q 622 -17 697 21 q 427 -56 546 -56 q 140 26 256 -56 q 12 268 12 115 q 221 560 12 473 q 111 742 115 631 q 235 947 117 873 q 484 1010 338 1010 q 642 983 562 1010 q 704 869 704 964 q 644 778 704 778 q 612 783 656 778 q 650 864 650 812 m 260 1190 q 302 1172 284 1190 q 319 1128 319 1154 q 302 1088 319 1105 q 261 1069 284 1069 q 217 1085 235 1069 q 197 1124 197 1101 q 260 1190 197 1190 m 460 1194 q 502 1176 484 1194 q 519 1133 519 1158 q 502 1092 519 1110 q 461 1074 484 1074 q 417 1089 435 1074 q 397 1128 397 1105 q 460 1194 397 1194 z "},"Ì":{"ha":359,"x_min":-35,"x_max":374,"o":"m 328 96 q 338 98 331 98 q 352 92 348 98 q 356 69 356 81 q 343 -1 356 9 q 288 5 321 5 l 237 0 l 237 -1 l 234 0 l 125 -11 q 24 14 68 -11 q -5 75 -5 29 q 17 115 -5 106 l 17 111 q 33 99 17 106 q 123 74 74 76 l 120 77 q 143 538 143 379 q 123 852 143 678 l 90 851 q 16 876 45 851 q -15 947 -15 903 q 83 1006 -15 1006 q 197 957 161 1006 q 300 996 249 968 q 374 994 354 1011 q 226 871 335 892 q 248 536 248 710 q 227 86 248 479 q 328 96 300 95 m 286 1156 q 236 1066 273 1066 q 0 1171 12 1171 l -4 1171 q -22 1164 -11 1171 q -35 1207 -35 1180 l -35 1216 q 0 1257 -35 1257 q 37 1248 14 1257 q 133 1202 56 1239 q 277 1150 232 1156 l 286 1156 z "},"Í":{"ha":359,"x_min":-15,"x_max":391,"o":"m 328 96 q 338 98 331 98 q 352 92 348 98 q 356 69 356 81 q 343 -1 356 9 q 288 5 321 5 l 237 0 l 237 -1 l 234 0 l 125 -11 q 24 14 68 -11 q -5 75 -5 29 q 17 115 -5 106 l 17 111 q 33 99 17 106 q 123 74 74 76 l 120 77 q 143 538 143 379 q 123 852 143 678 l 90 851 q 16 876 45 851 q -15 947 -15 903 q 83 1006 -15 1006 q 197 957 161 1006 q 300 996 249 968 q 374 994 354 1011 q 226 871 335 892 q 248 536 248 710 q 227 86 248 479 q 328 96 300 95 m 83 1128 q 159 1171 112 1128 q 334 1278 279 1278 q 391 1216 391 1278 q 357 1171 391 1171 q 121 1066 347 1171 q 73 1128 82 1066 l 83 1128 z "},"Î":{"ha":359,"x_min":-28,"x_max":374,"o":"m 329 96 q 338 98 332 98 q 353 92 349 98 q 357 69 357 81 q 344 -1 357 9 q 288 5 321 5 l 237 0 l 237 -1 l 235 0 l 126 -11 q 24 14 69 -11 q -5 75 -5 29 q 18 115 -5 106 l 18 111 q 33 99 18 106 q 123 74 75 76 l 121 77 q 144 538 144 379 q 123 852 144 678 l 90 851 q 17 876 46 851 q -14 947 -14 903 q 84 1006 -14 1006 q 198 957 161 1006 q 301 996 250 968 q 374 994 355 1011 q 227 871 336 892 q 249 536 249 710 q 228 86 249 479 q 329 96 300 95 m 173 1116 q 106 1042 142 1065 q 27 1016 64 1016 q -13 1040 3 1016 q -28 1085 -28 1061 q -23 1106 -28 1099 q 13 1099 -9 1099 q 100 1158 59 1099 q 136 1233 118 1180 q 181 1272 140 1272 q 223 1242 212 1272 q 260 1147 248 1164 q 341 1114 281 1114 q 370 1077 370 1114 q 341 1027 370 1027 q 222 1066 266 1027 q 173 1116 180 1102 z "},"Ï":{"ha":359,"x_min":-15,"x_max":374,"o":"m 328 96 q 338 98 331 98 q 352 92 348 98 q 356 69 356 81 q 343 -1 356 9 q 288 5 321 5 l 237 0 l 237 -1 l 234 0 l 125 -11 q 24 14 68 -11 q -5 75 -5 29 q 17 115 -5 106 l 17 111 q 33 99 17 106 q 123 74 74 76 l 120 77 q 143 538 143 379 q 123 852 143 678 l 90 851 q 16 876 45 851 q -15 947 -15 903 q 83 1006 -15 1006 q 197 957 161 1006 q 300 996 249 968 q 374 994 354 1011 q 226 871 335 892 q 248 536 248 710 q 227 86 248 479 q 328 96 300 95 m 81 1190 q 123 1172 105 1190 q 140 1128 140 1154 q 123 1088 140 1105 q 82 1069 105 1069 q 38 1085 56 1069 q 18 1124 18 1101 q 81 1190 18 1190 m 281 1194 q 323 1176 305 1194 q 340 1133 340 1158 q 323 1092 340 1110 q 282 1074 305 1074 q 238 1089 256 1074 q 218 1128 218 1105 q 281 1194 218 1194 z "},"Ð":{"ha":1223,"x_min":-163,"x_max":1187,"o":"m 231 396 q 213 393 231 396 q 195 429 195 391 q 234 486 195 468 q 350 515 273 505 q 397 720 370 720 l 399 720 q 444 517 425 720 l 475 517 q 830 427 736 517 q 836 409 836 417 q 754 327 836 370 l 733 324 l 722 324 q 701 338 701 324 q 751 386 701 344 l 751 389 q 488 409 669 409 l 446 409 q 444 131 444 220 l 444 104 q 642 81 513 87 q 1038 271 960 93 q 1059 362 1059 307 q 724 760 1059 560 q -52 948 376 948 q -107 936 -107 948 l -107 930 q -60 901 -73 920 l -60 895 q -72 886 -60 892 q -163 951 -163 901 q 7 1006 -163 999 l 66 1006 q 886 769 486 1006 q 1187 359 1187 578 l 1187 330 q 956 49 1187 145 q 660 -1 821 -1 q 437 28 572 -1 q 391 -80 428 -80 l 379 -80 q 344 -1 357 -80 q 332 60 338 60 q 231 105 267 85 q 195 158 195 125 q 228 178 195 191 q 323 140 261 166 q 335 137 328 137 q 341 395 335 184 q 344 403 344 400 q 341 406 341 403 q 231 396 267 401 z "},"Ñ":{"ha":792,"x_min":16,"x_max":777,"o":"m 618 999 q 777 395 777 755 q 638 -18 777 34 q 426 172 559 -15 q 212 589 290 361 q 117 35 166 297 q 64 -18 102 -18 q 29 13 44 -18 q 16 77 16 42 q 18 103 16 94 q 120 682 44 194 q 131 873 135 787 q 177 960 126 960 q 256 777 220 960 q 421 380 291 594 q 627 119 563 118 q 659 375 659 224 q 591 961 659 609 q 618 999 571 994 m 250 1010 q 220 1050 220 1034 q 321 1156 237 1156 q 387 1114 332 1156 q 463 1073 444 1073 q 509 1090 486 1073 q 534 1131 534 1108 q 534 1140 534 1137 q 564 1103 564 1128 q 536 1035 564 1062 q 468 1008 508 1008 q 384 1043 441 1008 q 317 1078 326 1078 q 250 1010 276 1078 z "},"Ò":{"ha":773,"x_min":22,"x_max":930,"o":"m 930 817 q 907 775 930 775 q 882 800 890 775 q 804 847 867 847 q 723 829 766 847 q 748 699 748 766 q 741 635 748 674 q 765 538 765 614 q 669 165 765 336 q 363 -39 553 -39 q 105 121 202 -39 q 22 436 22 259 q 146 823 22 651 q 484 1010 283 1010 q 692 888 616 1010 q 808 909 755 909 q 886 886 850 909 q 930 817 930 859 m 351 490 q 427 688 351 587 q 603 844 496 781 q 477 936 551 936 q 220 769 320 936 q 127 400 127 614 q 186 150 127 243 q 387 43 254 43 q 593 193 496 43 q 703 495 685 332 q 488 330 625 330 q 351 490 351 330 m 654 671 q 637 777 654 723 q 446 492 446 646 q 500 412 446 412 q 602 492 552 412 q 654 671 654 575 m 583 1156 q 532 1066 570 1066 q 296 1171 309 1171 l 292 1171 q 274 1164 286 1171 q 262 1207 262 1180 l 262 1216 q 296 1257 262 1257 q 334 1248 310 1257 q 429 1202 352 1239 q 573 1150 528 1156 l 583 1156 z "},"Ó":{"ha":773,"x_min":22,"x_max":930,"o":"m 930 817 q 907 775 930 775 q 882 800 890 775 q 804 847 867 847 q 723 829 766 847 q 748 699 748 766 q 741 635 748 674 q 765 538 765 614 q 669 165 765 336 q 363 -39 553 -39 q 105 121 202 -39 q 22 436 22 259 q 146 823 22 651 q 484 1010 283 1010 q 692 888 616 1010 q 808 909 755 909 q 886 886 850 909 q 930 817 930 859 m 351 490 q 427 688 351 587 q 603 844 496 781 q 477 936 551 936 q 220 769 320 936 q 127 400 127 614 q 186 150 127 243 q 387 43 254 43 q 593 193 496 43 q 703 495 685 332 q 488 330 625 330 q 351 490 351 330 m 654 671 q 637 777 654 723 q 446 492 446 646 q 500 412 446 412 q 602 492 552 412 q 654 671 654 575 m 379 1128 q 456 1171 408 1128 q 631 1278 575 1278 q 688 1216 688 1278 q 653 1171 688 1171 q 417 1066 643 1171 q 370 1128 378 1066 l 379 1128 z "},"Ô":{"ha":773,"x_min":22,"x_max":930,"o":"m 930 817 q 907 775 930 775 q 882 800 890 775 q 804 847 867 847 q 723 829 766 847 q 748 699 748 766 q 741 635 748 674 q 765 538 765 614 q 669 165 765 336 q 363 -39 553 -39 q 105 121 202 -39 q 22 436 22 259 q 146 823 22 651 q 484 1010 283 1010 q 692 888 616 1010 q 808 909 755 909 q 886 886 850 909 q 930 817 930 859 m 351 490 q 427 688 351 587 q 603 844 496 781 q 477 936 551 936 q 220 769 320 936 q 127 400 127 614 q 186 150 127 243 q 387 43 254 43 q 593 193 496 43 q 703 495 685 332 q 488 330 625 330 q 351 490 351 330 m 654 671 q 637 777 654 723 q 446 492 446 646 q 500 412 446 412 q 602 492 552 412 q 654 671 654 575 m 494 1110 q 427 1036 463 1059 q 348 1010 385 1010 q 308 1034 324 1010 q 292 1079 292 1055 q 298 1100 292 1093 q 334 1093 312 1093 q 421 1152 380 1093 q 456 1227 439 1174 q 502 1265 460 1265 q 544 1236 533 1265 q 581 1141 568 1158 q 662 1108 602 1108 q 691 1071 691 1108 q 662 1021 691 1021 q 543 1060 587 1021 q 494 1110 500 1096 z "},"Õ":{"ha":773,"x_min":22,"x_max":930,"o":"m 930 817 q 907 775 930 775 q 882 800 890 775 q 804 847 867 847 q 723 829 766 847 q 748 699 748 766 q 741 635 748 674 q 765 538 765 614 q 669 165 765 336 q 363 -39 553 -39 q 105 121 202 -39 q 22 436 22 259 q 146 823 22 651 q 484 1010 283 1010 q 692 888 616 1010 q 808 909 755 909 q 886 886 850 909 q 930 817 930 859 m 351 490 q 427 688 351 587 q 603 844 496 781 q 477 936 551 936 q 220 769 320 936 q 127 400 127 614 q 186 150 127 243 q 387 43 254 43 q 593 193 496 43 q 703 495 685 332 q 488 330 625 330 q 351 490 351 330 m 654 671 q 637 777 654 723 q 446 492 446 646 q 500 412 446 412 q 602 492 552 412 q 654 671 654 575 m 353 1088 q 323 1128 323 1112 q 425 1234 340 1234 q 490 1192 435 1234 q 566 1151 547 1151 q 612 1168 589 1151 q 637 1209 637 1186 q 637 1218 637 1215 q 667 1181 667 1206 q 639 1113 667 1140 q 571 1086 611 1086 q 487 1121 544 1086 q 420 1156 429 1156 q 353 1088 379 1156 z "},"Ö":{"ha":773,"x_min":22,"x_max":930,"o":"m 930 817 q 907 775 930 775 q 882 800 890 775 q 804 847 867 847 q 723 829 766 847 q 748 699 748 766 q 741 635 748 674 q 765 538 765 614 q 669 165 765 336 q 363 -39 553 -39 q 105 121 202 -39 q 22 436 22 259 q 146 823 22 651 q 484 1010 283 1010 q 692 888 616 1010 q 808 909 755 909 q 886 886 850 909 q 930 817 930 859 m 351 490 q 427 688 351 587 q 603 844 496 781 q 477 936 551 936 q 220 769 320 936 q 127 400 127 614 q 186 150 127 243 q 387 43 254 43 q 593 193 496 43 q 703 495 685 332 q 488 330 625 330 q 351 490 351 330 m 654 671 q 637 777 654 723 q 446 492 446 646 q 500 412 446 412 q 602 492 552 412 q 654 671 654 575 m 377 1190 q 419 1172 401 1190 q 437 1128 437 1154 q 419 1088 437 1105 q 378 1069 401 1069 q 334 1085 353 1069 q 315 1124 315 1101 q 377 1190 315 1190 m 577 1194 q 619 1176 602 1194 q 637 1133 637 1158 q 619 1092 637 1110 q 578 1074 602 1074 q 534 1089 553 1074 q 515 1128 515 1105 q 577 1194 515 1194 z "},"×":{"ha":561,"x_min":81,"x_max":497,"o":"m 256 376 q 191 233 224 313 q 109 186 174 186 q 102 204 102 186 q 109 244 102 217 q 202 438 140 336 q 87 594 140 511 q 81 614 81 604 q 86 629 81 623 q 164 648 122 648 q 193 609 180 634 l 256 514 q 324 581 296 559 q 419 621 382 621 q 463 577 457 621 q 450 572 467 572 q 372 533 429 572 q 304 451 338 506 l 372 356 q 451 296 419 296 q 494 326 485 296 q 497 286 497 319 q 439 201 497 201 q 360 263 412 201 l 256 376 z "},"Ø":{"ha":926,"x_min":18,"x_max":888,"o":"m 779 825 q 888 444 888 659 q 766 82 888 205 q 477 -41 643 -41 q 202 38 314 -41 q 137 -51 170 -6 q 121 -58 131 -58 q 78 -43 103 -58 q 52 -13 52 -26 q 58 0 52 -4 q 136 98 92 41 q 18 444 18 229 q 190 893 18 686 q 348 977 247 962 l 359 958 q 333 892 333 925 l 333 883 q 115 410 113 718 q 198 180 115 287 q 664 829 372 410 q 522 930 601 920 l 519 930 q 447 872 447 928 q 500 781 447 814 q 587 754 542 754 l 564 710 q 541 705 555 705 q 485 719 529 705 q 398 779 440 733 q 359 864 359 833 q 536 1007 359 1007 q 718 906 627 1007 q 798 1021 757 962 q 808 1024 802 1024 q 850 1001 824 1024 q 878 962 878 978 q 876 958 878 958 q 779 825 828 892 m 258 114 q 272 101 265 107 q 458 43 350 43 q 686 132 585 43 q 788 447 788 221 q 716 739 788 593 q 258 114 498 440 z "},"Ù":{"ha":880,"x_min":32,"x_max":850,"o":"m 159 968 q 190 985 180 985 q 201 966 201 985 q 183 885 201 949 q 144 561 144 726 q 403 41 138 41 q 605 173 523 41 q 707 512 686 304 q 752 943 727 720 q 803 989 756 990 q 846 922 850 988 q 806 472 822 761 q 807 79 789 183 q 816 -43 824 -25 q 787 -61 808 -61 q 755 -49 772 -61 q 693 149 705 16 q 397 -66 589 -66 q 32 503 32 -66 q 159 968 32 769 m 546 1156 q 496 1066 533 1066 q 260 1171 272 1171 l 256 1171 q 237 1164 249 1171 q 225 1207 225 1180 l 225 1216 q 260 1257 225 1257 q 297 1248 273 1257 q 393 1202 315 1239 q 536 1150 492 1156 l 546 1156 z "},"Ú":{"ha":880,"x_min":32,"x_max":850,"o":"m 159 968 q 190 985 180 985 q 201 966 201 985 q 183 885 201 949 q 144 561 144 726 q 403 41 138 41 q 605 173 523 41 q 707 512 686 304 q 752 943 727 720 q 803 989 756 990 q 846 922 850 988 q 806 472 822 761 q 807 79 789 183 q 816 -43 824 -25 q 787 -61 808 -61 q 755 -49 772 -61 q 693 149 705 16 q 397 -66 589 -66 q 32 503 32 -66 q 159 968 32 769 m 339 1128 q 416 1171 368 1128 q 591 1278 535 1278 q 648 1216 648 1278 q 613 1171 648 1171 q 377 1066 603 1171 q 330 1128 338 1066 l 339 1128 z "},"Û":{"ha":880,"x_min":32,"x_max":850,"o":"m 159 968 q 190 985 180 985 q 201 966 201 985 q 183 885 201 949 q 144 561 144 726 q 403 41 138 41 q 605 173 523 41 q 707 512 686 304 q 752 943 727 720 q 803 989 756 990 q 846 922 850 988 q 806 472 822 761 q 807 79 789 183 q 816 -43 824 -25 q 787 -61 808 -61 q 755 -49 772 -61 q 693 149 705 16 q 397 -66 589 -66 q 32 503 32 -66 q 159 968 32 769 m 475 1069 q 409 995 444 1017 q 330 968 367 968 q 290 992 306 968 q 274 1038 274 1014 q 279 1059 274 1051 q 315 1052 294 1052 q 403 1110 361 1052 q 438 1185 420 1133 q 484 1224 442 1224 q 526 1195 515 1224 q 563 1099 550 1117 q 644 1067 584 1067 q 673 1029 673 1067 q 644 979 673 979 q 524 1019 568 979 q 475 1069 482 1055 z "},"Ü":{"ha":880,"x_min":32,"x_max":850,"o":"m 159 968 q 190 985 180 985 q 201 966 201 985 q 183 885 201 949 q 144 561 144 726 q 403 41 138 41 q 605 173 523 41 q 707 512 686 304 q 752 943 727 720 q 803 989 756 990 q 846 922 850 988 q 806 472 822 761 q 807 79 789 183 q 816 -43 824 -25 q 787 -61 808 -61 q 755 -49 772 -61 q 693 149 705 16 q 397 -66 589 -66 q 32 503 32 -66 q 159 968 32 769 m 337 1190 q 379 1172 361 1190 q 397 1128 397 1154 q 379 1088 397 1105 q 338 1069 361 1069 q 294 1085 313 1069 q 275 1124 275 1101 q 337 1190 275 1190 m 537 1194 q 579 1176 562 1194 q 597 1133 597 1158 q 579 1092 597 1110 q 538 1074 562 1074 q 494 1089 513 1074 q 475 1128 475 1105 q 537 1194 475 1194 z "},"Ý":{"ha":468,"x_min":14,"x_max":589,"o":"m 268 1004 q 290 977 290 1004 q 239 861 290 943 q 117 472 117 646 q 189 339 117 350 l 204 403 q 300 700 241 564 q 504 933 402 933 q 589 705 589 933 q 511 397 589 529 q 268 235 425 254 q 215 -161 215 5 q 204 -197 215 -178 q 174 -222 191 -220 q 120 -209 144 -227 q 97 -132 97 -191 q 168 245 97 -37 q 14 473 14 304 q 245 989 14 734 q 268 1004 263 1004 m 480 834 q 277 332 343 715 q 449 504 387 373 q 505 761 505 620 q 490 840 505 801 l 480 834 m 218 1128 q 295 1171 248 1128 q 470 1278 414 1278 q 527 1216 527 1278 q 492 1171 527 1171 q 256 1066 482 1171 q 209 1128 218 1066 l 218 1128 z "},"Þ":{"ha":646,"x_min":14,"x_max":623,"o":"m 45 443 q 55 429 55 443 q 56 422 55 424 q 104 356 77 366 q 109 557 109 461 q 71 926 109 765 q 64 937 71 937 q 62 929 62 933 q 43 905 54 905 q 20 951 20 922 q 81 1008 20 1008 q 157 933 138 1008 q 187 772 179 837 q 369 836 257 836 q 568 738 503 836 q 623 510 623 654 q 528 291 623 365 q 311 228 445 228 q 176 241 258 228 q 139 -36 160 106 q 115 -57 133 -57 q 55 22 55 -57 l 55 31 q 94 285 81 178 q 29 343 60 307 q 14 385 14 363 q 41 441 14 427 l 45 443 m 184 353 q 182 326 183 336 q 294 311 254 311 q 467 350 414 311 q 531 511 531 397 q 343 752 531 752 q 249 716 269 752 q 190 439 203 622 l 184 353 z "},"ß":{"ha":486,"x_min":14,"x_max":473,"o":"m 254 208 q 203 221 229 208 q 175 258 175 237 q 208 296 175 296 q 328 355 328 296 q 225 429 328 429 q 99 184 99 415 q 115 11 99 77 q 92 -28 129 -28 q 14 205 14 -28 q 236 497 14 497 q 358 450 311 497 q 401 349 401 408 q 348 256 401 275 q 473 130 473 231 q 344 -8 473 31 q 300 -14 321 -14 q 134 71 170 -14 q 129 100 129 87 q 235 165 129 156 l 256 165 q 336 122 336 159 l 336 119 q 279 95 336 99 q 188 98 212 98 q 176 90 176 95 q 287 54 183 60 q 410 133 410 57 q 254 208 410 180 z "},"à":{"ha":406,"x_min":-12,"x_max":389,"o":"m 277 532 q 350 261 313 532 q 389 -6 389 52 q 378 -14 389 -14 q 322 50 336 -11 l 300 142 q 136 136 231 133 q 71 -28 86 -23 q 58 -28 64 -32 q 21 58 14 1 q 46 167 21 69 q 16 239 16 184 q 19 246 16 245 q 24 245 22 247 q 71 225 44 225 q 233 512 161 433 q 277 532 253 532 m 163 211 l 289 214 q 250 414 257 414 q 163 211 230 401 m 309 652 q 259 562 296 562 q 23 667 35 666 l 19 667 q 1 660 12 667 q -12 703 -12 675 l -12 711 q 23 753 -12 753 q 60 743 37 753 q 156 697 79 734 q 300 646 255 652 l 309 652 z "},"á":{"ha":406,"x_min":14,"x_max":414,"o":"m 277 532 q 350 261 313 532 q 389 -6 389 52 q 378 -14 389 -14 q 322 50 336 -11 l 300 142 q 136 136 231 133 q 71 -28 86 -23 q 58 -28 64 -32 q 21 58 14 1 q 46 167 21 69 q 16 239 16 184 q 19 246 16 245 q 24 245 22 247 q 71 225 44 225 q 233 512 161 433 q 277 532 253 532 m 163 211 l 289 214 q 250 414 257 414 q 163 211 230 401 m 106 624 q 182 667 135 624 q 357 774 302 774 q 414 711 414 774 q 380 667 414 667 q 144 562 370 667 q 96 624 105 562 l 106 624 z "},"â":{"ha":406,"x_min":3,"x_max":402,"o":"m 278 532 q 351 261 313 532 q 390 -6 390 52 q 378 -14 390 -14 q 323 50 336 -11 l 300 142 q 136 136 232 133 q 72 -28 87 -23 q 58 -28 65 -32 q 22 58 15 1 q 47 167 22 69 q 16 239 16 184 q 19 246 16 245 q 24 245 22 247 q 72 225 45 225 q 234 512 162 433 q 278 532 254 532 m 164 211 l 290 214 q 250 414 258 414 q 164 211 231 401 m 205 651 q 138 577 174 600 q 59 551 96 551 q 19 574 35 551 q 3 620 3 596 q 9 641 3 633 q 45 634 23 634 q 132 692 91 634 q 168 768 150 715 q 213 806 172 806 q 255 777 244 806 q 292 682 279 699 q 373 649 313 649 q 402 612 402 649 q 373 562 402 562 q 254 601 298 562 q 205 651 212 637 z "},"ã":{"ha":406,"x_min":14,"x_max":392,"o":"m 277 532 q 349 261 312 532 q 389 -6 389 52 q 377 -14 389 -14 q 321 50 335 -11 l 299 142 q 135 136 231 133 q 71 -28 85 -23 q 57 -28 64 -32 q 20 58 14 1 q 45 167 20 69 q 15 239 15 184 q 18 246 15 245 q 23 245 21 247 q 71 225 43 225 q 233 512 161 433 q 277 532 252 532 m 163 211 l 288 214 q 249 414 256 414 q 163 211 229 401 m 79 584 q 48 623 48 607 q 150 730 66 730 q 216 688 160 730 q 292 646 272 646 q 338 663 315 646 q 363 705 363 682 q 362 713 363 711 q 392 676 392 702 q 364 608 392 635 q 296 581 336 581 q 212 616 269 581 q 146 652 155 652 q 79 584 104 652 z "},"ä":{"ha":406,"x_min":16,"x_max":433,"o":"m 279 532 q 351 261 314 532 q 391 -6 391 52 q 379 -14 391 -14 q 323 50 337 -11 l 301 142 q 137 136 233 133 q 73 -28 87 -23 q 59 -28 66 -32 q 22 58 16 1 q 47 167 22 69 q 17 239 17 184 q 20 246 17 245 q 25 245 23 247 q 73 225 45 225 q 235 512 163 433 q 279 532 254 532 m 165 211 l 290 214 q 251 414 258 414 q 165 211 231 401 m 173 686 q 215 667 197 686 q 233 624 233 649 q 215 583 233 601 q 174 564 197 564 q 130 581 149 564 q 111 620 111 597 q 173 686 111 686 m 373 690 q 415 671 397 690 q 433 629 433 653 q 415 587 433 606 q 374 569 397 569 q 330 585 349 569 q 311 624 311 601 q 373 690 311 690 z "},"å":{"ha":406,"x_min":16,"x_max":391,"o":"m 279 532 q 351 261 314 532 q 391 -6 391 52 q 379 -14 391 -14 q 323 50 337 -11 l 301 142 q 137 136 233 133 q 73 -28 87 -23 q 59 -28 66 -32 q 22 58 16 1 q 47 167 22 69 q 17 239 17 184 q 20 246 17 245 q 25 245 23 247 q 73 225 45 225 q 235 512 163 433 q 279 532 254 532 m 165 211 l 290 214 q 251 414 258 414 q 165 211 231 401 m 272 749 q 340 720 311 749 q 368 650 368 690 q 340 585 368 613 q 274 554 311 554 q 203 581 233 554 q 172 644 172 606 q 272 749 172 749 m 271 705 q 216 647 216 705 q 234 613 216 627 q 272 599 249 599 q 308 615 293 599 q 323 651 323 631 q 308 690 323 673 q 271 705 293 705 z "},"æ":{"ha":675,"x_min":16,"x_max":684,"o":"m 163 211 l 255 211 l 289 214 q 250 414 257 414 q 163 211 230 401 m 322 427 q 350 261 336 363 q 351 259 350 260 q 389 407 368 346 l 385 407 q 322 427 335 412 m 329 35 q 322 50 326 41 l 300 142 q 208 133 245 133 l 141 133 l 136 136 q 71 -28 86 -23 l 58 -28 q 21 58 21 1 q 46 164 21 69 l 46 167 q 16 228 16 184 l 16 239 q 21 245 16 245 l 24 245 q 71 225 44 225 q 233 512 161 433 q 277 532 253 532 q 318 444 298 532 q 548 496 339 482 q 671 460 671 496 q 684 431 680 460 l 684 422 q 568 404 673 404 l 471 404 q 433 266 454 379 l 435 266 q 553 275 545 275 q 601 256 601 273 q 509 192 581 192 q 421 186 509 186 l 418 186 l 415 171 l 415 121 q 456 74 419 74 q 642 88 608 88 q 657 79 657 86 l 657 77 q 477 -18 657 33 q 424 -24 436 -24 q 329 35 347 -24 z "},"ç":{"ha":464,"x_min":20,"x_max":443,"o":"m 166 5 q 20 186 20 28 q 101 393 20 304 q 323 489 189 489 q 398 472 359 489 q 431 426 437 455 q 380 408 425 396 q 167 342 238 427 q 102 182 102 263 q 233 71 102 85 q 332 76 296 71 q 405 102 368 81 q 443 77 443 122 q 260 1 443 7 q 234 -31 250 -13 q 315 -178 315 -110 q 312 -205 315 -196 q 216 -278 296 -278 q 120 -232 163 -278 q 104 -195 104 -217 q 138 -142 104 -157 q 216 -208 143 -195 q 254 -197 233 -208 q 257 -180 257 -186 q 160 -64 237 -117 q 147 -33 147 -52 q 160 -1 147 -14 q 166 5 163 1 z "},"è":{"ha":423,"x_min":-18,"x_max":395,"o":"m 256 477 q 385 444 352 479 q 385 404 395 426 q 277 386 361 386 l 179 386 q 141 248 162 361 l 144 248 q 262 256 253 256 q 309 224 309 254 q 224 174 289 180 q 126 168 173 169 l 123 102 q 165 56 127 56 q 351 70 317 63 q 366 61 366 71 q 185 -36 366 7 q 132 -42 158 -42 q 32 58 32 -42 q 47 179 32 98 q -1 214 -1 193 q 58 238 -1 229 q 97 389 76 327 l 94 389 q 26 421 26 395 q 256 477 30 464 m 302 652 q 252 562 290 562 q 16 667 28 666 l 12 667 q -6 660 5 667 q -18 703 -18 675 l -18 711 q 16 753 -18 753 q 54 743 30 753 q 149 697 72 734 q 293 646 248 652 l 302 652 z "},"é":{"ha":423,"x_min":-1,"x_max":431,"o":"m 256 477 q 385 444 352 479 q 385 404 395 426 q 277 386 361 386 l 179 386 q 141 248 162 361 l 144 248 q 262 256 253 256 q 309 224 309 254 q 224 174 289 180 q 126 168 173 169 l 123 102 q 165 56 127 56 q 351 70 317 63 q 366 61 366 71 q 185 -36 366 7 q 132 -42 158 -42 q 32 58 32 -42 q 47 179 32 98 q -1 214 -1 193 q 58 238 -1 229 q 97 389 76 327 l 94 389 q 26 421 26 395 q 256 477 30 464 m 122 598 q 199 641 151 598 q 374 748 318 748 q 431 686 431 748 q 396 641 431 641 q 160 536 386 641 q 113 598 121 536 l 122 598 z "},"ê":{"ha":423,"x_min":-3,"x_max":396,"o":"m 257 477 q 385 444 353 479 q 386 404 396 426 q 277 386 362 386 l 180 386 q 142 248 163 361 l 144 248 q 262 256 254 256 q 310 224 310 254 q 225 174 290 180 q 127 168 174 169 l 124 102 q 165 56 128 56 q 351 70 317 63 q 366 61 366 71 q 186 -36 366 7 q 133 -42 159 -42 q 33 58 33 -42 q 47 179 33 98 q 0 214 0 193 q 59 238 0 229 q 98 389 77 327 l 94 389 q 26 421 26 395 q 257 477 31 464 m 198 651 q 132 577 167 600 q 52 551 90 551 q 12 574 28 551 q -3 620 -3 596 q 2 641 -3 633 q 38 634 16 634 q 125 692 84 634 q 161 768 143 715 q 206 806 165 806 q 248 777 237 806 q 286 682 273 699 q 366 649 307 649 q 395 612 395 649 q 366 562 395 562 q 247 601 291 562 q 198 651 205 637 z "},"ë":{"ha":423,"x_min":-1,"x_max":395,"o":"m 256 477 q 385 444 352 479 q 385 404 395 426 q 277 386 361 386 l 179 386 q 141 248 162 361 l 144 248 q 262 256 253 256 q 309 224 309 254 q 224 174 289 180 q 126 168 173 169 l 123 102 q 165 56 127 56 q 351 70 317 63 q 366 61 366 71 q 185 -36 366 7 q 132 -42 158 -42 q 32 58 32 -42 q 47 179 32 98 q -1 214 -1 193 q 58 238 -1 229 q 97 389 76 327 l 94 389 q 26 421 26 395 q 256 477 30 464 m 97 686 q 139 667 121 686 q 157 624 157 649 q 139 583 157 601 q 98 564 121 564 q 54 581 73 564 q 35 620 35 597 q 97 686 35 686 m 297 690 q 339 671 321 690 q 357 629 357 653 q 339 587 357 606 q 298 569 321 569 q 254 585 273 569 q 235 624 235 601 q 297 690 235 690 z "},"ì":{"ha":235,"x_min":-132,"x_max":189,"o":"m 92 490 q 136 377 125 490 l 136 315 q 77 1 136 1 l 75 1 q 27 133 33 1 l 27 170 q 77 478 27 336 q 92 490 79 478 m 189 652 q 138 562 176 562 q -98 667 -85 666 l -102 667 q -120 660 -109 667 q -132 703 -132 675 l -132 711 q -98 753 -132 753 q -60 743 -84 753 q 35 697 -42 734 q 179 646 134 652 l 189 652 z "},"í":{"ha":235,"x_min":-24,"x_max":294,"o":"m 92 490 q 136 377 125 490 l 136 315 q 77 1 136 1 l 75 1 q 27 133 33 1 l 27 170 q 77 478 27 336 q 92 490 79 478 m -15 624 q 62 667 14 624 q 237 774 181 774 q 294 711 294 774 q 259 667 294 667 q 23 562 249 667 q -24 624 -16 562 l -15 624 z "},"î":{"ha":235,"x_min":-117,"x_max":281,"o":"m 92 490 q 137 377 126 490 l 137 315 q 78 1 137 1 l 75 1 q 28 133 34 1 l 28 170 q 78 478 28 336 q 92 490 79 478 m 84 651 q 18 577 53 600 q -62 551 -24 551 q -102 574 -85 551 q -117 620 -117 596 q -112 641 -117 633 q -76 634 -98 634 q 12 692 -30 634 q 47 768 29 715 q 92 806 51 806 q 134 777 123 806 q 172 682 159 699 q 252 649 193 649 q 281 612 281 649 q 252 562 281 562 q 133 601 177 562 q 84 651 91 637 z "},"ï":{"ha":235,"x_min":-79,"x_max":243,"o":"m 92 490 q 136 377 125 490 l 136 315 q 77 1 136 1 l 75 1 q 27 133 33 1 l 27 170 q 77 478 27 336 q 92 490 79 478 m -17 686 q 25 667 7 686 q 43 624 43 649 q 25 583 43 601 q -16 564 7 564 q -60 581 -41 564 q -79 620 -79 597 q -17 686 -79 686 m 183 690 q 225 671 208 690 q 243 629 243 653 q 225 587 243 606 q 184 569 208 569 q 140 585 159 569 q 121 624 121 601 q 183 690 121 690 z "},"ð":{"ha":679,"x_min":20,"x_max":658,"o":"m 241 673 q 215 686 227 673 q 203 713 203 699 q 223 732 203 728 q 364 807 276 741 q 273 901 321 859 q 214 991 227 942 q 216 1002 214 1000 q 291 974 252 1002 q 420 857 362 922 q 557 937 497 918 l 570 940 q 587 922 587 940 q 569 882 587 900 q 504 846 514 856 l 462 808 q 658 250 649 567 q 600 27 658 111 q 399 -69 532 -69 q 141 41 254 -69 q 20 334 20 160 q 63 505 20 439 q 198 578 111 578 q 423 494 336 578 q 513 290 506 414 q 456 329 483 296 q 379 463 431 417 q 197 497 305 507 q 125 452 152 497 q 101 343 101 410 q 176 107 101 193 q 389 7 264 7 q 500 60 456 7 q 559 224 559 130 q 404 755 575 519 q 248 675 321 700 l 241 673 z "},"ñ":{"ha":460,"x_min":22,"x_max":429,"o":"m 328 525 q 334 532 326 532 q 421 388 381 532 q 429 289 429 347 q 352 5 429 5 q 182 201 307 5 q 115 288 128 281 q 91 26 98 52 q 79 19 88 18 q 22 107 22 45 q 87 431 22 341 q 106 434 96 441 q 220 285 159 391 q 329 138 279 192 q 356 296 355 138 q 328 525 356 445 m 85 584 q 54 623 54 607 q 156 730 72 730 q 222 688 166 730 q 298 646 278 646 q 344 663 321 646 q 369 705 369 682 q 368 713 369 711 q 398 676 398 702 q 370 608 398 635 q 302 581 342 581 q 218 616 275 581 q 152 652 161 652 q 85 584 111 652 z "},"ò":{"ha":504,"x_min":23,"x_max":482,"o":"m 292 508 q 473 330 418 508 q 482 248 482 294 q 325 8 482 64 q 224 3 277 -5 q 23 224 23 24 q 170 435 23 376 q 292 508 208 508 m 214 369 q 207 354 214 369 q 189 340 199 340 q 175 373 179 340 q 119 237 119 347 q 266 60 125 60 q 404 234 397 60 q 309 407 404 372 q 257 408 283 417 q 214 369 230 398 m 359 652 q 309 562 347 562 q 73 667 85 666 l 69 667 q 51 660 62 667 q 39 703 39 675 l 39 711 q 73 753 39 753 q 111 743 87 753 q 206 697 129 734 q 350 646 305 652 l 359 652 z "},"ó":{"ha":504,"x_min":23,"x_max":482,"o":"m 292 508 q 473 330 418 508 q 482 248 482 294 q 325 8 482 64 q 224 3 277 -5 q 23 224 23 24 q 170 435 23 376 q 292 508 208 508 m 214 369 q 207 354 214 369 q 189 340 199 340 q 175 373 179 340 q 119 237 119 347 q 266 60 125 60 q 404 234 397 60 q 309 407 404 372 q 257 408 283 417 q 214 369 230 398 m 156 624 q 233 667 185 624 q 408 774 352 774 q 465 711 465 774 q 430 667 465 667 q 194 562 420 667 q 146 624 155 562 l 156 624 z "},"ô":{"ha":504,"x_min":23,"x_max":482,"o":"m 292 508 q 473 330 418 508 q 482 248 482 294 q 325 8 482 64 q 224 3 277 -5 q 23 224 23 24 q 170 435 23 376 q 292 508 208 508 m 214 369 q 207 354 214 369 q 189 340 199 340 q 175 373 179 340 q 119 237 119 347 q 266 60 125 60 q 404 234 397 60 q 309 407 404 372 q 257 408 283 417 q 214 369 230 398 m 255 651 q 189 577 224 600 q 109 551 146 551 q 69 574 85 551 q 54 620 54 596 q 59 641 54 633 q 95 634 73 634 q 182 692 141 634 q 218 768 200 715 q 263 806 222 806 q 305 777 294 806 q 342 682 330 699 q 423 649 363 649 q 452 612 452 649 q 423 562 452 562 q 304 601 348 562 q 255 651 262 637 z "},"õ":{"ha":504,"x_min":-4,"x_max":455,"o":"m 264 508 q 446 330 391 508 q 455 248 455 294 q 298 8 455 64 q 197 3 250 -5 q -4 224 -4 24 q 143 435 -4 376 q 264 508 180 508 m 187 369 q 179 354 187 369 q 161 340 172 340 q 148 373 152 340 q 92 237 92 347 q 239 60 98 60 q 377 234 370 60 q 282 407 377 372 q 230 408 256 417 q 187 369 203 398 m 102 584 q 72 623 72 607 q 174 730 90 730 q 239 688 184 730 q 315 646 296 646 q 361 663 338 646 q 387 705 387 682 q 386 713 387 711 q 416 676 416 702 q 388 608 416 635 q 320 581 360 581 q 236 616 293 581 q 170 652 178 652 q 102 584 128 652 z "},"ö":{"ha":504,"x_min":23,"x_max":482,"o":"m 292 508 q 473 330 418 508 q 482 248 482 294 q 325 8 482 64 q 224 3 277 -5 q 23 224 23 24 q 170 435 23 376 q 292 508 208 508 m 214 369 q 207 354 214 369 q 189 340 199 340 q 175 373 179 340 q 119 237 119 347 q 266 60 125 60 q 404 234 397 60 q 309 407 404 372 q 257 408 283 417 q 214 369 230 398 m 154 686 q 196 667 178 686 q 214 624 214 649 q 196 583 214 601 q 155 564 178 564 q 111 581 130 564 q 92 620 92 597 q 154 686 92 686 m 354 690 q 396 671 378 690 q 414 629 414 653 q 396 587 414 606 q 355 569 378 569 q 311 585 330 569 q 292 624 292 601 q 354 690 292 690 z "},"÷":{"ha":699,"x_min":71,"x_max":614,"o":"m 577 429 q 593 431 583 431 q 610 427 606 431 q 614 397 614 419 q 600 332 614 340 q 515 338 566 338 l 267 322 q 113 347 182 322 q 71 401 71 361 q 93 447 71 441 l 93 452 q 121 433 93 441 q 286 407 195 407 q 428 418 334 407 q 577 429 525 429 m 343 246 q 380 230 364 246 q 396 192 396 214 q 380 155 396 172 q 345 139 364 139 q 304 153 321 139 q 287 187 287 168 q 343 246 287 246 m 347 621 q 384 605 368 621 q 400 567 400 589 q 385 530 400 547 q 349 514 368 514 q 309 528 326 514 q 292 562 292 543 q 347 621 292 621 z "},"ø":{"ha":504,"x_min":0,"x_max":508,"o":"m 341 391 q 309 407 327 400 q 257 408 283 417 q 214 369 230 398 q 189 340 199 340 q 175 373 179 340 q 119 237 119 347 q 131 157 120 191 q 341 391 235 267 m 386 336 q 168 95 301 244 q 266 60 203 60 q 404 234 397 60 q 386 336 404 295 m 60 85 q 23 224 23 138 q 170 435 23 376 q 292 508 208 508 q 400 464 355 508 l 434 509 q 444 511 439 511 q 483 494 458 511 q 508 466 508 477 q 506 462 508 463 q 446 400 485 442 q 473 330 461 369 q 482 248 482 294 q 325 8 482 64 q 224 3 277 -5 q 115 36 159 9 q 78 -5 96 16 q 63 -10 73 -10 q 24 1 47 -10 q 0 22 0 13 q 5 32 0 29 q 60 85 33 58 z "},"ù":{"ha":464,"x_min":18,"x_max":449,"o":"m 43 62 q 25 198 18 116 q 159 515 52 414 q 178 522 168 522 q 197 494 193 522 q 117 231 134 328 q 111 168 111 199 q 163 89 118 89 q 309 351 238 89 q 351 432 327 432 q 375 399 363 432 q 422 194 402 294 q 449 33 441 94 q 406 -5 449 -5 q 368 36 382 -5 q 342 232 354 77 q 254 51 317 117 q 153 0 201 0 l 151 0 q 43 62 75 2 m 344 652 q 294 562 331 562 q 58 667 70 666 l 54 667 q 35 660 47 667 q 23 703 23 675 l 23 711 q 58 753 23 753 q 95 743 71 753 q 191 697 113 734 q 334 646 290 652 l 344 652 z "},"ú":{"ha":464,"x_min":14,"x_max":559,"o":"m 39 62 q 20 198 14 116 q 154 515 47 414 q 173 522 163 522 q 193 494 189 522 q 113 231 129 328 q 106 168 106 199 q 158 89 113 89 q 304 351 233 89 q 347 432 322 432 q 370 399 359 432 q 417 194 397 294 q 444 33 437 94 q 401 -5 444 -5 q 363 36 378 -5 q 337 232 349 77 q 250 51 313 117 q 148 0 197 0 l 146 0 q 39 62 71 2 m 250 604 q 327 647 279 604 q 502 754 446 754 q 559 692 559 754 q 524 647 559 647 q 288 542 514 647 q 241 604 250 542 l 250 604 z "},"û":{"ha":464,"x_min":20,"x_max":451,"o":"m 45 62 q 27 198 20 116 q 161 515 54 414 q 180 522 170 522 q 199 494 195 522 q 119 231 136 328 q 113 168 113 199 q 165 89 120 89 q 311 351 240 89 q 353 432 329 432 q 377 399 366 432 q 424 194 404 294 q 451 33 444 94 q 408 -5 451 -5 q 370 36 385 -5 q 344 232 356 77 q 256 51 319 117 q 155 0 203 0 l 153 0 q 45 62 77 2 m 241 651 q 175 577 210 600 q 96 551 133 551 q 56 574 72 551 q 40 620 40 596 q 45 641 40 633 q 81 634 60 634 q 169 692 127 634 q 204 768 186 715 q 250 806 208 806 q 292 777 281 806 q 329 682 316 699 q 410 649 350 649 q 439 612 439 649 q 410 562 439 562 q 290 601 334 562 q 241 651 248 637 z "},"ü":{"ha":464,"x_min":14,"x_max":444,"o":"m 39 62 q 20 198 14 116 q 154 515 47 414 q 173 522 163 522 q 193 494 189 522 q 113 231 129 328 q 106 168 106 199 q 158 89 113 89 q 304 351 233 89 q 347 432 322 432 q 370 399 359 432 q 417 194 397 294 q 444 33 437 94 q 401 -5 444 -5 q 363 36 378 -5 q 337 232 349 77 q 250 51 313 117 q 148 0 197 0 l 146 0 q 39 62 71 2 m 157 682 q 199 663 181 682 q 216 620 216 645 q 199 579 216 597 q 158 560 181 560 q 114 576 132 560 q 94 616 94 593 q 157 682 94 682 m 357 686 q 399 667 381 686 q 416 625 416 649 q 399 583 416 602 q 358 565 381 565 q 314 581 332 565 q 294 620 294 597 q 357 686 294 686 z "},"ý":{"ha":486,"x_min":23,"x_max":526,"o":"m 207 532 q 216 515 220 531 q 194 460 213 503 q 158 368 174 418 q 123 182 123 256 q 146 117 125 117 q 288 355 191 222 q 455 505 391 505 q 522 390 524 505 q 396 79 522 238 q 233 -3 318 -3 q 193 5 210 -3 q 91 -347 155 -104 q 70 -358 85 -365 q 23 -273 23 -336 q 109 35 23 -165 q 50 182 50 86 q 191 526 50 321 q 207 532 196 532 m 231 77 q 414 227 330 77 q 460 385 460 323 q 437 414 460 414 q 227 94 378 414 q 231 77 220 78 m 217 624 q 294 667 246 624 q 469 774 413 774 q 526 711 526 774 q 491 667 526 667 q 255 562 481 667 q 208 624 216 562 l 217 624 z "},"þ":{"ha":340,"x_min":15,"x_max":317,"o":"m 62 461 q 92 504 62 504 q 132 482 122 504 q 136 453 136 469 q 125 350 136 432 q 237 383 160 383 q 317 253 317 383 q 276 127 317 183 q 173 66 233 68 q 100 97 137 66 l 87 -62 q 66 -75 82 -75 q 37 -52 58 -75 q 15 5 15 -28 q 51 325 15 100 q 64 429 64 399 q 62 461 64 450 m 205 321 q 113 210 125 321 q 168 128 113 128 q 227 174 200 128 q 251 262 251 218 q 205 321 251 321 z "},"ÿ":{"ha":486,"x_min":23,"x_max":524,"o":"m 207 532 q 216 515 220 531 q 194 460 213 503 q 158 368 174 418 q 123 182 123 256 q 146 117 125 117 q 288 355 191 222 q 455 505 391 505 q 522 390 524 505 q 396 79 522 238 q 233 -3 318 -3 q 193 5 210 -3 q 91 -347 155 -104 q 70 -358 85 -365 q 23 -273 23 -336 q 109 35 23 -165 q 50 182 50 86 q 191 526 50 321 q 207 532 196 532 m 231 77 q 414 227 330 77 q 460 385 460 323 q 437 414 460 414 q 227 94 378 414 q 231 77 220 78 m 215 686 q 257 667 239 686 q 275 624 275 649 q 257 583 275 601 q 216 564 239 564 q 172 581 191 564 q 153 620 153 597 q 215 686 153 686 m 415 690 q 457 671 439 690 q 475 629 475 653 q 457 587 475 606 q 416 569 439 569 q 372 585 391 569 q 353 624 353 601 q 415 690 353 690 z "},"Č":{"ha":850,"x_min":20,"x_max":852,"o":"m 799 68 q 802 48 799 68 q 717 -10 804 28 q 469 -49 629 -49 q 158 81 286 -49 q 20 431 20 221 q 152 796 20 626 q 553 997 308 997 q 775 924 696 997 q 852 764 852 852 q 787 619 852 671 q 670 574 730 574 q 566 614 610 574 q 524 709 524 654 q 568 796 524 758 q 627 800 611 827 q 597 716 597 791 q 613 673 597 692 q 660 648 633 648 q 724 672 688 648 q 773 770 773 704 q 557 926 773 926 q 241 755 392 926 q 123 444 123 610 q 248 149 123 279 q 473 49 351 49 q 722 78 650 49 q 799 68 794 108 m 530 1176 q 597 1250 561 1227 q 676 1276 639 1276 q 716 1252 700 1276 q 731 1206 731 1230 q 726 1185 731 1193 q 690 1192 711 1192 q 602 1135 644 1192 q 566 1059 585 1112 q 521 1021 562 1021 q 479 1050 490 1021 q 442 1146 455 1128 q 361 1179 421 1179 q 332 1216 332 1179 q 362 1266 333 1266 q 481 1226 437 1266 q 530 1176 523 1190 z "},"č":{"ha":464,"x_min":20,"x_max":443,"o":"m 405 102 q 424 112 405 102 q 443 77 443 122 q 224 0 443 0 q 20 186 20 0 q 101 393 20 304 q 323 489 189 489 q 398 472 359 489 q 431 426 437 455 q 380 408 425 396 q 167 342 238 427 q 102 182 102 263 q 233 71 102 85 q 332 76 296 71 q 405 102 368 81 m 229 706 q 296 780 260 758 q 376 806 338 806 q 416 782 399 806 q 431 736 431 760 q 425 715 431 723 q 389 722 411 722 q 302 665 343 722 q 266 589 284 642 q 220 551 262 551 q 178 580 189 551 q 142 676 155 659 q 61 709 121 709 q 32 746 32 709 q 62 796 33 796 q 180 756 137 796 q 229 706 222 720 z "},"Ğ":{"ha":799,"x_min":14,"x_max":1002,"o":"m 681 353 q 711 233 711 334 q 620 35 711 108 q 360 -37 528 -37 q 113 38 203 -37 q 14 277 14 119 q 239 787 14 566 q 750 1007 463 1007 q 924 956 852 1007 q 1002 814 1002 901 q 981 755 1002 780 q 927 730 958 730 q 863 783 876 730 q 905 775 896 775 q 932 811 932 775 q 878 890 932 848 q 770 918 831 918 q 427 817 587 918 q 216 615 285 736 q 115 256 115 456 q 199 96 115 167 q 359 50 262 50 q 575 108 515 50 q 628 244 635 166 q 578 345 621 322 q 427 372 534 368 q 395 399 395 374 q 435 429 395 431 q 798 432 770 438 q 826 401 826 427 q 802 359 826 368 q 681 353 778 350 m 513 1140 q 587 1165 549 1140 q 629 1226 629 1192 q 649 1240 629 1233 q 675 1184 675 1223 q 630 1084 675 1124 q 519 1044 585 1044 q 509 1044 515 1044 q 498 1044 503 1044 q 387 1084 431 1044 q 341 1184 341 1124 q 375 1237 341 1223 q 388 1226 388 1236 q 429 1165 388 1192 q 505 1140 468 1140 l 513 1140 z "},"ğ":{"ha":468,"x_min":12,"x_max":459,"o":"m 330 363 q 309 420 351 420 q 271 413 299 420 q 97 182 97 340 q 242 55 97 60 q 385 186 383 60 q 260 175 270 179 q 238 188 250 172 q 239 215 232 203 q 302 234 247 228 q 406 241 358 240 q 446 225 432 241 q 459 172 459 208 q 403 43 459 91 q 227 -4 347 -4 q 12 184 12 -4 q 117 406 12 309 q 300 490 210 490 q 404 421 404 490 q 330 363 404 372 m 241 635 q 315 661 277 635 q 357 722 357 688 q 377 735 357 728 q 403 680 403 718 q 358 579 403 620 q 248 539 313 539 q 237 540 243 539 q 226 539 231 539 q 115 579 159 539 q 69 680 69 620 q 103 732 69 718 q 116 722 116 731 q 157 661 116 688 q 233 635 196 635 l 241 635 z "},"Ĩ":{"ha":359,"x_min":-77,"x_max":311,"o":"m 266 96 q 275 98 269 98 q 290 92 286 98 q 294 69 294 81 q 281 -1 294 9 q 225 5 258 5 l 174 0 l 174 -1 l 172 0 l 63 -11 q -39 14 6 -11 q -68 75 -68 29 q -45 115 -68 106 l -45 111 q -30 99 -45 106 q 60 74 12 76 l 58 77 q 81 538 81 379 q 60 852 81 678 l 27 851 q -46 876 -17 851 q -77 947 -77 903 q 21 1006 -77 1006 q 135 957 98 1006 q 238 996 186 968 q 311 994 292 1011 q 163 871 273 892 q 186 536 186 710 q 165 86 186 479 q 266 96 237 95 m -6 1088 q -37 1128 -37 1112 q 65 1234 -19 1234 q 131 1192 75 1234 q 207 1151 187 1151 q 253 1168 230 1151 q 278 1209 278 1186 q 277 1218 278 1215 q 307 1181 307 1206 q 279 1113 307 1140 q 212 1086 252 1086 q 127 1121 184 1086 q 61 1156 70 1156 q -6 1088 20 1156 z "},"ĩ":{"ha":235,"x_min":-175,"x_max":169,"o":"m -12 490 q 33 377 22 490 l 33 315 q -26 1 33 1 l -28 1 q -76 133 -70 1 l -76 170 q -26 478 -76 336 q -12 490 -24 478 m -144 584 q -175 623 -175 607 q -73 730 -157 730 q -7 688 -63 730 q 68 646 49 646 q 115 663 92 646 q 140 705 140 682 q 139 713 140 711 q 169 676 169 702 q 141 608 169 635 q 73 581 113 581 q -11 616 46 581 q -77 652 -68 652 q -144 584 -119 652 z "},"İ":{"ha":359,"x_min":-15,"x_max":374,"o":"m 328 96 q 338 98 331 98 q 352 92 348 98 q 356 69 356 81 q 343 -1 356 9 q 288 5 321 5 l 237 0 l 237 -1 l 234 0 l 125 -11 q 24 14 68 -11 q -5 75 -5 29 q 17 115 -5 106 l 17 111 q 33 99 17 106 q 123 74 74 76 l 120 77 q 143 538 143 379 q 123 852 143 678 l 90 851 q 16 876 45 851 q -15 947 -15 903 q 83 1006 -15 1006 q 197 957 161 1006 q 300 996 249 968 q 374 994 354 1011 q 226 871 335 892 q 248 536 248 710 q 227 86 248 479 q 328 96 300 95 m 181 1190 q 223 1172 205 1190 q 241 1128 241 1154 q 223 1088 241 1105 q 182 1069 205 1069 q 138 1085 157 1069 q 119 1124 119 1101 q 181 1190 119 1190 z "},"ı":{"ha":235,"x_min":27,"x_max":136,"o":"m 92 490 q 136 377 125 490 l 136 315 q 77 1 136 1 l 75 1 q 27 133 33 1 l 27 170 q 77 478 27 336 q 92 490 79 478 z "},"Ł":{"ha":667,"x_min":-5,"x_max":676,"o":"m 283 456 q 175 85 252 284 q 667 40 545 125 q 676 22 676 29 q 612 -2 676 -2 q 536 8 576 -2 q 272 1 496 17 q 115 -11 227 -11 q 49 16 75 -11 q 110 219 22 43 q 179 426 158 316 q 54 414 112 411 q 3 449 12 415 q 24 497 -5 482 l 24 494 q 47 490 25 490 q 191 506 113 487 q 195 610 196 557 q 172 968 195 683 q 179 1002 172 995 q 212 1011 186 1011 q 284 918 255 1011 q 302 750 302 863 q 296 538 310 650 q 317 546 306 543 q 444 587 400 576 q 458 592 449 589 q 478 593 471 595 q 490 567 484 587 q 486 511 500 522 q 411 497 454 507 q 304 463 375 488 q 283 456 293 460 z "},"ł":{"ha":313,"x_min":-90,"x_max":294,"o":"m 50 287 q 122 498 73 387 q 148 513 137 513 q 159 490 156 513 q 136 315 144 392 q 149 321 142 318 q 243 355 211 345 q 254 358 246 357 q 269 358 263 361 q 279 332 274 351 q 281 277 291 288 q 224 267 256 275 q 146 240 198 260 q 126 233 136 236 q 117 93 117 141 l 117 85 q 125 87 122 87 q 288 113 153 87 l 294 104 l 294 98 q 173 5 294 37 q 128 0 161 0 l 108 0 q 26 104 41 0 q 34 206 26 153 q -39 205 -5 200 q -81 242 -72 209 q -68 288 -90 275 l -68 285 q -50 280 -67 281 q 50 287 -3 274 z "},"Œ":{"ha":1295,"x_min":22,"x_max":1276,"o":"m 804 847 q 723 829 766 847 q 748 699 748 766 q 741 635 748 674 q 765 538 765 614 q 669 165 765 336 q 363 -39 553 -39 q 105 121 202 -39 q 22 436 22 259 q 146 823 22 651 q 484 1010 283 1010 q 692 888 616 1010 q 808 909 755 909 q 886 886 850 909 q 804 847 863 859 m 351 490 q 427 688 351 587 q 603 844 496 781 q 477 936 551 936 q 220 769 320 936 q 127 400 127 614 q 186 150 127 243 q 387 43 254 43 q 593 193 496 43 q 703 495 685 332 q 488 330 625 330 q 351 490 351 330 m 654 671 q 637 777 654 723 q 446 492 446 646 q 500 412 446 412 q 602 492 552 412 q 654 671 654 575 m 1221 864 q 1180 909 1221 877 q 1059 928 1130 928 q 892 882 966 928 q 795 737 795 818 q 854 618 809 648 q 989 636 919 636 q 1103 621 1054 636 q 1153 597 1142 609 q 1164 554 1164 585 q 1135 499 1164 515 q 1008 482 1101 482 q 846 507 908 482 q 831 498 839 505 q 692 269 670 452 q 782 92 692 160 q 989 31 878 31 q 1215 143 1118 31 q 1256 174 1245 174 q 1269 115 1269 174 q 1236 41 1269 75 q 999 -56 1138 -56 q 711 26 827 -56 q 584 268 584 115 q 758 579 584 507 q 682 742 686 659 q 807 947 688 873 q 1056 1010 910 1010 q 1213 983 1134 1010 q 1276 869 1276 964 q 1216 778 1276 778 q 1184 783 1228 778 q 1221 864 1221 812 m 1009 551 q 1078 562 1038 551 q 1028 572 1061 572 q 935 558 1014 572 l 1009 551 z "},"œ":{"ha":828,"x_min":23,"x_max":800,"o":"m 189 340 q 175 373 179 340 q 119 237 119 347 q 266 60 125 60 q 404 234 397 60 q 309 407 404 372 q 257 408 283 417 q 214 369 230 398 q 189 340 199 340 m 438 90 q 325 8 399 35 q 224 3 277 -5 q 23 224 23 24 q 170 435 23 376 q 292 508 208 508 q 431 425 378 508 q 661 477 444 465 q 789 444 757 479 q 790 404 800 426 q 682 386 766 386 l 584 386 q 546 248 567 361 l 549 248 q 667 256 658 256 q 714 224 714 254 q 629 174 694 180 q 531 168 578 169 l 528 102 q 570 56 532 56 q 755 70 722 63 q 770 61 770 71 q 590 -36 770 7 q 537 -42 563 -42 q 437 58 437 -42 q 438 90 437 72 m 445 401 q 473 330 461 370 q 478 306 476 318 q 502 389 490 352 l 498 389 q 445 401 462 392 z "},"Ş":{"ha":868,"x_min":18,"x_max":847,"o":"m 355 -41 q 140 22 233 -28 q 18 216 18 88 q 98 359 18 309 q 259 403 166 403 q 436 378 436 416 q 398 323 435 326 q 183 310 259 327 q 107 222 107 293 q 191 94 107 141 q 386 46 275 46 q 676 159 563 46 q 745 323 745 234 q 641 468 745 428 q 393 505 560 492 q 164 545 228 518 q 60 699 60 588 q 217 929 60 844 q 611 1006 357 1006 q 699 998 655 1010 q 752 953 743 987 q 645 914 762 919 q 304 879 393 919 q 161 704 161 828 q 292 591 161 629 l 517 565 q 744 498 670 548 q 847 290 847 429 q 688 31 847 126 q 448 -45 570 -42 q 420 -78 438 -59 q 501 -225 501 -157 q 498 -253 501 -243 q 402 -326 483 -326 q 307 -279 350 -326 q 291 -242 291 -264 q 324 -189 291 -205 q 403 -256 330 -242 q 440 -245 419 -256 q 444 -228 444 -233 q 347 -111 423 -165 q 334 -81 334 -99 q 347 -49 334 -62 q 355 -41 351 -45 z "},"ş":{"ha":496,"x_min":-1,"x_max":490,"o":"m 203 29 q 7 111 83 39 q -1 141 -1 128 q 151 206 -1 197 l 181 206 q 295 163 295 200 l 295 160 q 214 136 295 140 q 83 138 119 138 q 67 130 67 136 q 224 95 77 101 q 401 174 401 111 q 140 269 401 220 q 21 334 21 304 q 16 361 16 334 q 159 461 16 417 q 309 477 224 477 l 317 477 q 482 442 482 473 q 485 439 485 442 l 485 434 q 355 396 485 407 q 108 366 108 396 q 105 358 105 366 q 341 290 105 338 q 490 171 490 251 q 306 33 490 72 l 303 33 q 276 -1 294 18 q 357 -148 357 -80 q 354 -176 357 -166 q 258 -248 338 -248 q 162 -202 205 -248 q 146 -165 146 -187 q 180 -112 146 -127 q 258 -178 185 -165 q 296 -168 275 -178 q 299 -151 299 -156 q 202 -34 279 -87 q 189 -3 189 -22 q 202 28 189 16 l 203 29 z "},"Š":{"ha":868,"x_min":18,"x_max":847,"o":"m 477 310 q 439 255 476 258 q 200 279 293 300 q 107 189 107 259 q 181 80 107 121 q 386 39 255 39 q 654 96 563 39 q 745 263 745 153 q 652 433 745 374 q 387 515 560 492 q 137 590 214 538 q 60 726 60 642 q 217 929 60 844 q 611 1006 357 1006 q 699 998 655 1010 q 752 953 743 987 q 645 914 762 919 q 304 879 393 919 q 161 731 161 828 q 416 589 161 629 q 759 461 670 548 q 833 223 847 374 q 706 14 820 72 q 439 -45 593 -45 q 130 12 243 -45 q 18 182 18 68 q 98 326 18 275 q 293 369 166 369 q 477 310 477 355 m 454 1171 q 521 1245 485 1223 q 600 1271 563 1271 q 640 1247 624 1271 q 655 1202 655 1225 q 650 1181 655 1188 q 614 1187 635 1187 q 526 1130 568 1187 q 490 1055 509 1107 q 445 1016 486 1016 q 403 1045 414 1016 q 366 1141 379 1124 q 286 1174 345 1174 q 256 1211 256 1174 q 286 1261 257 1261 q 405 1221 361 1261 q 454 1171 447 1185 z "},"š":{"ha":496,"x_min":-1,"x_max":490,"o":"m 309 477 q 482 442 482 473 q 328 396 483 401 q 105 358 108 396 q 341 290 105 338 q 490 171 490 258 q 306 33 490 72 q 243 27 277 27 q 7 111 75 27 q -1 141 -1 128 q 158 206 -1 197 q 295 160 295 200 q 214 136 295 140 q 79 137 92 138 q 67 130 67 136 q 224 95 77 101 q 401 167 401 98 q 140 269 401 220 q 42 309 68 284 q 16 361 16 334 q 153 461 16 424 q 309 477 224 477 m 243 706 q 310 780 274 758 q 389 806 352 806 q 429 782 413 806 q 444 736 444 760 q 439 715 444 723 q 403 722 425 722 q 315 665 357 722 q 279 589 298 642 q 234 551 275 551 q 192 580 203 551 q 155 676 168 659 q 75 709 134 709 q 45 746 45 709 q 75 796 46 796 q 194 756 151 796 q 243 706 236 720 z "},"Ŷ":{"ha":468,"x_min":14,"x_max":589,"o":"m 268 1004 q 290 977 290 1004 q 239 861 290 943 q 117 472 117 646 q 189 339 117 350 l 204 403 q 300 700 241 564 q 504 933 402 933 q 589 705 589 933 q 511 397 589 529 q 268 235 425 254 q 215 -161 215 5 q 204 -197 215 -178 q 174 -222 191 -220 q 120 -209 144 -227 q 97 -132 97 -191 q 168 245 97 -37 q 14 473 14 304 q 245 989 14 734 q 268 1004 263 1004 m 480 834 q 277 332 343 715 q 449 504 387 373 q 505 761 505 620 q 490 840 505 801 l 480 834 m 345 1112 q 278 1038 313 1061 q 199 1012 236 1012 q 159 1036 175 1012 q 143 1081 143 1057 q 149 1102 143 1095 q 184 1095 163 1095 q 272 1154 231 1095 q 307 1229 290 1176 q 353 1267 311 1267 q 395 1238 384 1267 q 432 1143 419 1160 q 513 1110 453 1110 q 542 1073 542 1110 q 513 1023 542 1023 q 393 1062 437 1023 q 345 1112 351 1098 z "},"ŷ":{"ha":486,"x_min":23,"x_max":524,"o":"m 207 532 q 216 515 220 531 q 194 460 213 503 q 158 368 174 418 q 123 182 123 256 q 146 117 125 117 q 288 355 191 222 q 455 505 391 505 q 522 390 524 505 q 396 79 522 238 q 233 -3 318 -3 q 193 5 210 -3 q 91 -347 155 -104 q 70 -358 85 -365 q 23 -273 23 -336 q 109 35 23 -165 q 50 182 50 86 q 191 526 50 321 q 207 532 196 532 m 231 77 q 414 227 330 77 q 460 385 460 323 q 437 414 460 414 q 227 94 378 414 q 231 77 220 78 m 315 651 q 249 577 284 600 q 170 551 207 551 q 130 574 146 551 q 114 620 114 596 q 119 641 114 633 q 155 634 134 634 q 243 692 201 634 q 278 768 260 715 q 323 806 282 806 q 366 777 355 806 q 403 682 390 699 q 484 649 424 649 q 513 612 513 649 q 484 562 513 562 q 364 601 408 562 q 315 651 322 637 z "},"Ÿ":{"ha":468,"x_min":14,"x_max":589,"o":"m 268 1004 q 290 977 290 1004 q 239 861 290 943 q 117 472 117 646 q 189 339 117 350 l 204 403 q 300 700 241 564 q 504 933 402 933 q 589 705 589 933 q 511 397 589 529 q 268 235 425 254 q 215 -161 215 5 q 204 -197 215 -178 q 174 -222 191 -220 q 120 -209 144 -227 q 97 -132 97 -191 q 168 245 97 -37 q 14 473 14 304 q 245 989 14 734 q 268 1004 263 1004 m 480 834 q 277 332 343 715 q 449 504 387 373 q 505 761 505 620 q 490 840 505 801 l 480 834 m 216 1190 q 258 1172 241 1190 q 276 1128 276 1154 q 258 1088 276 1105 q 218 1069 241 1069 q 174 1085 192 1069 q 154 1124 154 1101 q 216 1190 154 1190 m 416 1194 q 458 1176 441 1194 q 476 1133 476 1158 q 458 1092 476 1110 q 418 1074 441 1074 q 374 1089 392 1074 q 354 1128 354 1105 q 416 1194 354 1194 z "},"Ź":{"ha":961,"x_min":4,"x_max":926,"o":"m 5 1 q 359 350 147 119 q 736 814 570 581 q 432 880 559 835 q 233 926 305 926 q 94 895 133 932 q 140 968 60 928 q 273 1000 205 1000 q 492 963 381 1000 q 683 922 657 928 q 772 910 736 909 q 836 911 808 911 q 861 880 861 910 q 825 772 861 810 q 221 65 602 434 q 924 84 814 64 q 817 -20 926 -6 q 58 -62 76 -62 l 50 -60 q 19 -39 34 -58 q 4 -5 4 -22 l 5 1 m 376 1128 q 453 1171 406 1128 q 628 1278 572 1278 q 685 1216 685 1278 q 650 1171 685 1171 q 414 1066 640 1171 q 367 1128 376 1066 l 376 1128 z "},"ź":{"ha":448,"x_min":15,"x_max":437,"o":"m 269 18 q 64 9 97 5 q 19 58 19 18 q 35 94 19 77 q 161 233 64 132 q 300 405 243 319 q 214 394 245 394 q 63 414 111 394 q 15 464 15 433 q 19 492 15 477 q 122 477 55 490 q 216 465 184 465 q 330 492 277 465 q 354 497 344 497 q 401 454 397 497 q 327 309 404 414 q 125 88 251 203 l 264 93 q 349 99 315 99 q 386 98 372 99 q 434 68 434 96 q 382 24 434 24 l 379 24 q 269 18 369 25 m 128 624 q 205 667 157 624 q 380 774 324 774 q 437 711 437 774 q 402 667 437 667 q 166 562 392 667 q 119 624 127 562 l 128 624 z "},"Ż":{"ha":961,"x_min":4,"x_max":926,"o":"m 5 1 q 359 350 147 119 q 736 814 570 581 q 432 880 559 835 q 233 926 305 926 q 94 895 133 932 q 140 968 60 928 q 273 1000 205 1000 q 492 963 381 1000 q 683 922 657 928 q 772 910 736 909 q 836 911 808 911 q 861 880 861 910 q 825 772 861 810 q 221 65 602 434 q 924 84 814 64 q 817 -20 926 -6 q 58 -62 76 -62 l 50 -60 q 19 -39 34 -58 q 4 -5 4 -22 l 5 1 m 474 1190 q 516 1172 498 1190 q 534 1128 534 1154 q 516 1088 534 1105 q 475 1069 498 1069 q 431 1085 450 1069 q 412 1124 412 1101 q 474 1190 412 1190 z "},"ż":{"ha":448,"x_min":15,"x_max":434,"o":"m 269 18 q 64 9 97 5 q 19 58 19 18 q 35 94 19 77 q 161 233 64 132 q 300 405 243 319 q 214 394 245 394 q 63 414 111 394 q 15 464 15 433 q 19 492 15 477 q 122 477 55 490 q 216 465 184 465 q 330 492 277 465 q 354 497 344 497 q 401 454 397 497 q 327 309 404 414 q 125 88 251 203 l 264 93 q 349 99 315 99 q 386 98 372 99 q 434 68 434 96 q 382 24 434 24 l 379 24 q 269 18 369 25 m 226 686 q 268 667 250 686 q 286 624 286 649 q 268 583 286 601 q 227 564 250 564 q 183 581 201 564 q 163 620 163 597 q 226 686 163 686 z "},"Ž":{"ha":961,"x_min":4,"x_max":926,"o":"m 5 1 q 359 350 147 119 q 736 814 570 581 q 432 880 559 835 q 233 926 305 926 q 94 895 133 932 q 140 968 60 928 q 273 1000 205 1000 q 492 963 381 1000 q 683 922 657 928 q 772 910 736 909 q 836 911 808 911 q 861 880 861 910 q 825 772 861 810 q 221 65 602 434 q 924 84 814 64 q 817 -20 926 -6 q 58 -62 76 -62 l 50 -60 q 19 -39 34 -58 q 4 -5 4 -22 l 5 1 m 553 1154 q 620 1228 584 1206 q 699 1254 662 1254 q 739 1230 723 1254 q 754 1185 754 1208 q 749 1164 754 1171 q 713 1171 734 1171 q 625 1113 667 1171 q 589 1038 608 1090 q 544 999 585 999 q 502 1028 513 999 q 465 1124 478 1107 q 385 1157 444 1157 q 355 1194 355 1157 q 385 1244 356 1244 q 504 1204 460 1244 q 553 1154 546 1168 z "},"ž":{"ha":448,"x_min":15,"x_max":434,"o":"m 269 18 q 64 9 97 5 q 19 58 19 18 q 35 94 19 77 q 161 233 64 132 q 300 405 243 319 q 214 394 245 394 q 63 414 111 394 q 15 464 15 433 q 19 492 15 477 q 122 477 55 490 q 216 465 184 465 q 330 492 277 465 q 354 497 344 497 q 401 454 397 497 q 327 309 404 414 q 125 88 251 203 l 264 93 q 349 99 315 99 q 386 98 372 99 q 434 68 434 96 q 382 24 434 24 l 379 24 q 269 18 369 25 m 222 706 q 290 780 254 758 q 369 806 332 806 q 409 782 393 806 q 424 736 424 760 q 418 715 424 723 q 382 722 404 722 q 295 665 336 722 q 259 589 277 642 q 214 551 255 551 q 172 580 182 551 q 135 676 148 659 q 54 709 114 709 q 25 746 25 709 q 55 796 26 796 q 174 756 130 796 q 222 706 216 720 z "},"ƒ":{"ha":5303,"x_min":14,"x_max":5271,"o":"m 854 987 q 1008 815 912 977 q 1074 496 1074 699 q 894 20 1074 200 q 652 -83 779 -83 q 397 48 498 -83 q 267 17 326 17 q 33 220 101 17 q 18 291 21 259 q 18 428 14 355 q 121 710 28 567 q 352 909 257 890 q 361 909 356 911 q 372 895 373 907 q 298 798 372 883 q 127 356 127 572 q 238 94 127 153 q 292 83 265 83 q 363 100 321 83 q 317 288 317 214 q 452 633 317 503 q 594 693 528 693 q 697 616 669 693 q 711 533 711 581 q 477 94 711 299 q 649 -14 561 -14 q 911 205 810 -14 q 965 550 965 361 q 839 966 965 825 q 836 982 831 972 q 854 987 841 991 m 412 328 q 448 154 412 220 q 591 433 566 287 q 606 542 606 492 l 606 550 q 554 627 606 626 q 432 473 485 627 q 412 328 412 389 m 1308 505 q 1381 234 1343 505 q 1420 -33 1420 25 q 1409 -41 1420 -41 q 1353 22 1367 -38 l 1331 115 q 1166 109 1262 106 q 1102 -56 1117 -50 q 1088 -56 1095 -59 q 1052 31 1045 -26 q 1077 140 1052 42 q 1046 212 1046 157 q 1049 219 1046 218 q 1055 218 1053 220 q 1102 198 1075 198 q 1264 485 1192 406 q 1308 505 1284 505 m 1194 184 l 1320 187 q 1280 387 1288 387 q 1194 184 1261 374 m 1556 486 q 1569 463 1572 485 q 1526 60 1527 167 q 1699 85 1563 60 q 1705 71 1705 85 q 1584 -24 1705 10 q 1525 -27 1565 -27 q 1437 77 1438 -27 q 1533 471 1437 251 q 1556 486 1539 486 m 1722 518 q 1732 510 1733 518 q 1727 494 1731 503 q 1725 473 1723 484 q 1904 411 1739 424 q 2099 502 1983 502 q 2184 429 2184 493 q 1946 323 2182 334 q 1874 -108 1874 85 q 1855 -155 1874 -155 q 1780 -2 1785 -158 q 1852 326 1780 159 q 1683 378 1743 341 q 1644 436 1644 403 q 1722 518 1644 502 m 1995 411 q 2109 453 2091 411 q 2086 463 2107 463 q 1995 411 2038 463 m 2155 979 q 3015 742 2616 979 q 3317 332 3317 551 q 3085 22 3317 118 q 2789 -28 2950 -28 q 2567 1 2701 -28 q 2520 -107 2557 -107 l 2509 -107 q 2473 -48 2486 -107 q 2462 33 2468 -3 q 2163 294 2163 144 q 2298 446 2163 383 q 2479 488 2370 473 q 2526 692 2500 692 l 2529 692 q 2573 490 2554 692 l 2605 490 q 2960 399 2865 490 q 2965 382 2965 393 q 2884 300 2965 329 q 2852 296 2866 294 q 2831 313 2832 300 q 2860 343 2830 328 q 2880 361 2890 358 q 2617 382 2798 382 l 2576 382 q 2573 77 2573 193 q 2772 54 2642 60 q 3167 237 3082 66 q 3188 335 3188 280 q 2854 733 3188 533 q 2078 921 2506 921 q 2022 909 2022 921 q 2045 894 2022 903 q 2069 874 2068 885 q 2058 859 2069 859 q 1967 924 1967 874 q 2155 979 1967 972 m 2216 289 q 2464 109 2216 199 q 2471 379 2464 224 q 2216 289 2216 360 m 3522 875 q 3638 825 3621 875 q 3741 746 3741 825 q 3606 591 3741 669 q 3450 555 3533 555 q 3346 572 3404 555 q 3295 530 3318 530 q 3287 544 3288 532 q 3304 606 3287 564 q 3270 687 3270 634 q 3425 861 3270 795 q 3522 875 3467 875 m 3352 698 q 3354 673 3348 680 q 3547 798 3461 777 q 3352 698 3379 810 m 3402 623 q 3472 608 3414 614 q 3674 712 3594 608 q 3682 743 3682 724 q 3660 766 3682 766 q 3411 633 3575 766 l 3402 623 m 3408 463 q 3453 323 3448 463 q 3394 -26 3453 -26 q 3343 142 3349 -26 q 3394 451 3343 309 q 3408 463 3398 459 m 3788 450 q 3961 415 3961 446 q 3807 369 3962 374 q 3584 331 3587 369 q 3820 263 3584 311 q 3969 144 3969 231 q 3785 5 3969 45 q 3722 0 3756 0 q 3486 84 3554 0 q 3478 114 3478 101 q 3637 179 3478 170 q 3774 133 3774 173 q 3693 109 3774 113 q 3558 110 3571 111 q 3546 103 3546 109 q 3703 68 3556 74 q 3880 140 3880 71 q 3619 241 3880 193 q 3521 282 3547 257 q 3495 334 3495 307 q 3632 434 3495 397 q 3788 450 3703 450 m 4302 498 q 4308 505 4300 505 q 4395 361 4355 505 q 4403 262 4403 319 q 4326 -22 4403 -22 q 4156 174 4281 -22 q 4089 260 4102 254 q 4065 -1 4072 24 q 4053 -8 4062 -9 q 3996 80 3996 18 q 4062 404 3996 314 q 4081 407 4070 414 q 4194 258 4133 363 q 4303 111 4253 165 q 4330 269 4329 111 q 4302 498 4330 418 m 4678 450 q 4806 416 4774 452 q 4807 376 4817 399 q 4698 359 4783 359 l 4601 359 q 4563 220 4584 334 l 4565 220 q 4683 229 4675 229 q 4731 197 4731 227 q 4646 146 4711 153 q 4548 140 4595 142 l 4545 75 q 4586 28 4549 28 q 4772 43 4738 36 q 4787 34 4787 43 q 4607 -63 4787 -20 q 4554 -69 4580 -69 q 4454 31 4454 -69 q 4468 152 4454 71 q 4421 186 4421 165 q 4480 211 4421 201 q 4519 361 4498 300 l 4515 361 q 4447 394 4447 368 q 4678 450 4451 437 m 4954 505 q 4964 488 4968 504 q 4941 433 4960 475 q 4905 340 4921 391 q 4870 155 4870 229 q 4894 90 4873 90 q 5035 328 4938 195 q 5202 478 5138 478 q 5269 363 5271 478 q 5143 52 5269 211 q 4980 -30 5065 -30 q 4940 -22 4957 -30 q 4838 -374 4902 -131 q 4817 -385 4833 -392 q 4770 -300 4770 -363 q 4856 8 4770 -193 q 4797 155 4797 59 q 4938 498 4797 294 q 4954 505 4943 505 m 4978 50 q 5161 199 5077 50 q 5208 357 5208 296 q 5185 387 5208 387 q 4974 66 5126 387 q 4978 50 4968 51 z "},"ˆ":{"ha":458,"x_min":20,"x_max":419,"o":"m 222 651 q 155 577 191 600 q 76 551 113 551 q 36 574 52 551 q 20 620 20 596 q 26 641 20 633 q 62 634 40 634 q 149 692 108 634 q 184 768 167 715 q 230 806 189 806 q 272 777 261 806 q 309 682 296 699 q 390 649 330 649 q 419 612 419 649 q 390 562 419 562 q 271 601 315 562 q 222 651 229 637 z "},"ˇ":{"ha":458,"x_min":20,"x_max":419,"o":"m 218 706 q 285 780 249 758 q 364 806 327 806 q 404 782 388 806 q 419 736 419 760 q 414 715 419 723 q 378 722 399 722 q 290 665 332 722 q 254 589 273 642 q 209 551 250 551 q 167 580 178 551 q 130 676 143 659 q 50 709 109 709 q 20 746 20 709 q 50 796 21 796 q 169 756 125 796 q 218 706 211 720 z "},"˘":{"ha":559,"x_min":118,"x_max":452,"o":"m 290 635 q 364 661 326 635 q 406 722 406 688 q 426 735 406 728 q 452 680 452 718 q 407 579 452 620 q 296 539 362 539 q 286 540 292 539 q 275 539 279 539 q 163 579 208 539 q 118 680 118 620 q 152 732 118 718 q 165 722 165 731 q 206 661 165 688 q 282 635 245 635 l 290 635 z "},"˙":{"ha":468,"x_min":171,"x_max":293,"o":"m 233 686 q 275 667 258 686 q 293 624 293 649 q 275 583 293 601 q 235 564 258 564 q 191 581 209 564 q 171 620 171 597 q 233 686 171 686 z "},"˚":{"ha":463,"x_min":130,"x_max":327,"o":"m 231 732 q 298 703 270 732 q 327 633 327 673 q 298 568 327 596 q 233 537 270 537 q 162 564 191 537 q 130 627 130 589 q 231 732 130 732 m 229 688 q 175 630 175 688 q 193 596 175 610 q 231 582 208 582 q 267 598 252 582 q 282 634 282 614 q 267 673 282 656 q 229 688 252 688 z "},"˛":{"ha":237,"x_min":90,"x_max":300,"o":"m 171 -22 q 244 7 220 22 q 257 -24 257 -5 q 244 -55 257 -43 q 148 -172 168 -109 q 151 -189 148 -177 q 189 -199 172 -199 q 267 -133 261 -186 q 300 -186 300 -149 q 284 -223 300 -208 q 189 -269 241 -269 q 93 -197 109 -269 q 90 -169 90 -187 q 171 -22 90 -101 z "},"˜":{"ha":559,"x_min":117,"x_max":461,"o":"m 148 584 q 117 623 117 607 q 219 730 135 730 q 285 688 229 730 q 361 646 341 646 q 407 663 384 646 q 432 705 432 682 q 431 713 432 711 q 461 676 461 702 q 433 608 461 635 q 366 581 406 581 q 281 616 338 581 q 215 652 224 652 q 148 584 174 652 z "},"˝":{"ha":694,"x_min":0,"x_max":636,"o":"m 9 624 q 86 667 39 624 q 261 774 205 774 q 318 711 318 774 q 283 667 318 667 q 47 562 273 667 q 0 624 9 562 l 9 624 m 328 624 q 404 667 357 624 q 579 774 524 774 q 636 711 636 774 q 602 667 636 667 q 366 562 591 667 q 318 624 327 562 l 328 624 z "},"̂":{"ha":0,"x_min":-536,"x_max":-137,"o":"m -334 651 q -401 577 -366 600 q -480 551 -443 551 q -520 574 -504 551 q -536 620 -536 596 q -530 641 -536 633 q -494 634 -516 634 q -407 692 -448 634 q -372 768 -389 715 q -326 806 -368 806 q -284 777 -295 806 q -247 682 -260 699 q -166 649 -226 649 q -137 612 -137 649 q -166 562 -137 562 q -286 601 -241 562 q -334 651 -328 637 z "},"̃":{"ha":559,"x_min":14,"x_max":528,"o":"m 60 694 q 14 753 14 728 q 166 910 40 910 q 264 848 181 910 q 378 787 348 787 q 446 812 412 787 q 484 873 484 839 q 483 886 484 882 q 528 831 528 869 q 486 730 528 771 q 385 690 444 690 q 259 743 345 690 q 159 795 173 795 q 60 694 98 795 z "},"‘":{"ha":208,"x_min":14,"x_max":194,"o":"m 183 913 q 121 891 151 913 q 88 838 88 868 q 102 815 88 821 q 111 829 98 817 q 137 838 115 838 q 187 790 187 838 q 161 743 187 762 q 106 724 136 724 q 45 749 74 724 q 14 818 14 777 q 50 908 14 867 q 134 950 86 950 q 194 911 184 950 l 183 913 z "},"’":{"ha":208,"x_min":14,"x_max":194,"o":"m 24 761 q 87 783 56 761 q 119 836 119 806 q 105 859 119 852 q 97 844 109 857 q 71 836 92 836 q 20 884 20 836 q 47 931 20 911 q 101 950 71 950 q 162 924 134 950 q 194 856 194 897 q 158 766 194 806 q 73 724 121 724 q 14 762 23 724 l 24 761 z "},"‚":{"ha":199,"x_min":15,"x_max":184,"o":"m 27 -122 q 85 -102 60 -122 q 112 -50 112 -81 q 97 -26 112 -31 q 85 -32 90 -26 q 60 -43 75 -43 q 29 -31 43 -43 q 15 -4 15 -18 q 94 81 15 81 q 166 31 141 81 q 184 -39 184 -5 q 155 -122 184 -87 q 77 -158 125 -158 q 20 -122 34 -158 l 27 -122 z "},"“":{"ha":460,"x_min":14,"x_max":446,"o":"m 183 913 q 121 891 151 913 q 88 838 88 868 q 102 815 88 821 q 111 829 98 817 q 137 838 115 838 q 187 790 187 838 q 161 743 187 762 q 106 724 136 724 q 45 749 74 724 q 14 818 14 777 q 50 908 14 867 q 134 950 86 950 q 194 911 184 950 l 183 913 m 435 913 q 373 891 404 913 q 340 838 340 868 q 355 815 340 821 q 363 829 351 817 q 389 838 368 838 q 439 790 439 838 q 413 743 439 762 q 359 724 389 724 q 298 749 326 724 q 266 818 266 777 q 302 908 266 867 q 387 950 338 950 q 446 911 437 950 l 435 913 z "},"”":{"ha":460,"x_min":14,"x_max":446,"o":"m 24 761 q 87 783 56 761 q 119 836 119 806 q 105 859 119 852 q 97 844 109 857 q 71 836 92 836 q 20 884 20 836 q 47 931 20 911 q 101 950 71 950 q 162 924 134 950 q 194 856 194 897 q 158 766 194 806 q 73 724 121 724 q 14 762 23 724 l 24 761 m 277 761 q 339 783 309 761 q 372 836 372 806 q 357 859 372 852 q 349 844 361 857 q 323 836 345 836 q 273 884 273 836 q 299 931 273 911 q 353 950 323 950 q 414 924 386 950 q 446 856 446 897 q 410 766 446 806 q 326 724 374 724 q 266 762 275 724 l 277 761 z "},"„":{"ha":460,"x_min":14,"x_max":446,"o":"m 24 -76 q 87 -54 56 -76 q 119 -1 119 -31 q 105 22 119 16 q 97 7 109 20 q 71 -1 92 -1 q 20 47 20 -1 q 47 94 20 75 q 101 113 71 113 q 162 87 134 113 q 194 19 194 60 q 158 -71 194 -31 q 73 -113 121 -113 q 14 -75 23 -113 l 24 -76 m 277 -76 q 339 -54 309 -76 q 372 -1 372 -31 q 357 22 372 16 q 349 7 361 20 q 323 -1 345 -1 q 273 47 273 -1 q 299 94 273 75 q 353 113 323 113 q 414 87 386 113 q 446 19 446 60 q 410 -71 446 -31 q 326 -113 374 -113 q 266 -75 275 -113 l 277 -76 z "},"†":{"ha":235,"x_min":47,"x_max":157,"o":"m 112 490 q 157 350 153 490 q 98 1 157 1 q 47 170 54 1 q 98 478 47 336 q 112 490 102 486 z "},"‡":{"ha":269,"x_min":-66,"x_max":294,"o":"m 79 390 q 119 472 78 468 q 186 210 163 477 q 293 281 248 255 q 294 279 294 281 q 293 272 294 275 q 193 138 266 205 l 196 93 q 155 -283 196 -210 q 33 -367 119 -367 q -66 -172 -66 -367 q 93 118 -66 -28 l 79 390 m 100 35 q 75 14 77 18 q 5 -180 5 -57 q 61 -304 5 -294 q 100 35 95 -296 z "},"•":{"ha":429,"x_min":-9,"x_max":391,"o":"m 228 413 q 160 404 197 413 l 153 372 q 136 287 138 311 q 296 362 296 311 q 243 413 296 411 l 228 413 m 185 219 q 127 212 157 215 l 120 48 q 86 5 113 3 q 42 49 52 19 q 33 155 33 79 q 35 205 33 187 q 71 376 35 277 q 16 364 40 364 q -9 383 -9 364 q 9 415 -7 393 q 243 488 68 488 q 343 450 302 488 q 385 359 385 413 q 311 256 385 290 q 283 244 297 250 q 375 100 324 191 q 383 41 391 71 q 350 9 374 4 q 330 22 337 13 q 185 219 245 157 z "},"…":{"ha":1389,"x_min":15,"x_max":1063,"o":"m 77 90 q 119 72 102 90 q 137 29 137 54 q 119 -12 137 6 q 79 -31 102 -31 q 35 -15 53 -31 q 15 25 15 1 q 77 90 15 90 m 541 90 q 583 72 565 90 q 600 29 600 54 q 583 -12 600 6 q 542 -31 565 -31 q 498 -15 516 -31 q 478 25 478 1 q 541 90 478 90 m 1004 90 q 1046 72 1028 90 q 1063 29 1063 54 q 1046 -12 1063 6 q 1005 -31 1028 -31 q 961 -15 979 -31 q 941 25 941 1 q 1004 90 941 90 z "},"‰":{"ha":3173,"x_min":-163,"x_max":3141,"o":"m 24 979 q 885 742 486 979 q 1187 332 1187 551 q 955 22 1187 118 q 659 -28 820 -28 q 437 1 571 -28 q 390 -107 427 -107 l 378 -107 q 343 -48 356 -107 q 332 33 338 -3 q 33 294 33 144 q 168 446 33 383 q 349 488 239 473 q 396 692 370 692 l 399 692 q 443 490 424 692 l 475 490 q 829 399 735 490 q 835 382 835 393 q 753 300 835 329 q 722 296 736 294 q 701 313 702 300 q 730 343 700 328 q 750 361 760 358 q 487 382 668 382 l 446 382 q 443 77 443 193 q 642 54 512 60 q 1037 237 952 66 q 1058 335 1058 280 q 724 733 1058 533 q -52 921 376 921 q -108 909 -108 921 q -85 894 -108 903 q -61 874 -62 885 q -73 859 -61 859 q -163 924 -163 874 q 24 979 -163 972 m 85 289 q 334 109 85 199 q 340 379 334 224 q 85 289 85 360 m 1392 875 q 1508 825 1491 875 q 1611 746 1611 825 q 1476 591 1611 669 q 1320 555 1403 555 q 1216 572 1274 555 q 1165 530 1187 530 q 1157 544 1158 532 q 1174 606 1157 564 q 1140 687 1140 634 q 1295 861 1140 795 q 1392 875 1337 875 m 1221 698 q 1224 673 1218 680 q 1417 798 1331 777 q 1221 698 1249 810 m 1272 623 q 1342 608 1284 614 q 1544 712 1463 608 q 1552 743 1552 724 q 1530 766 1552 766 q 1280 633 1444 766 l 1272 623 m 1278 463 q 1322 323 1318 463 q 1263 -26 1322 -26 q 1213 142 1219 -26 q 1263 451 1213 309 q 1278 463 1268 459 m 1657 450 q 1831 415 1831 446 q 1676 369 1832 374 q 1454 331 1457 369 q 1690 263 1454 311 q 1839 144 1839 231 q 1655 5 1839 45 q 1592 0 1626 0 q 1356 84 1424 0 q 1348 114 1348 101 q 1507 179 1348 170 q 1644 133 1644 173 q 1563 109 1644 113 q 1428 110 1440 111 q 1416 103 1416 109 q 1573 68 1426 74 q 1750 140 1750 71 q 1489 241 1750 193 q 1391 282 1417 257 q 1364 334 1365 307 q 1501 434 1364 397 q 1657 450 1573 450 m 2172 498 q 2178 505 2169 505 q 2265 361 2225 505 q 2273 262 2273 319 q 2196 -22 2273 -22 q 2026 174 2151 -22 q 1959 260 1972 254 q 1935 -1 1942 24 q 1923 -8 1932 -9 q 1866 80 1866 18 q 1931 404 1866 314 q 1950 407 1940 414 q 2064 258 2003 363 q 2173 111 2123 165 q 2200 269 2199 111 q 2172 498 2200 418 m 2548 450 q 2676 416 2644 452 q 2677 376 2687 399 q 2568 359 2653 359 l 2471 359 q 2433 220 2454 334 l 2435 220 q 2553 229 2544 229 q 2601 197 2601 227 q 2516 146 2580 153 q 2418 140 2464 142 l 2415 75 q 2456 28 2419 28 q 2642 43 2608 36 q 2657 34 2657 43 q 2477 -63 2657 -20 q 2424 -69 2450 -69 q 2323 31 2323 -69 q 2338 152 2323 71 q 2291 186 2291 165 q 2350 211 2291 201 q 2389 361 2367 300 l 2385 361 q 2317 394 2317 368 q 2548 450 2321 437 m 2824 505 q 2833 488 2837 504 q 2811 433 2830 475 q 2775 340 2791 391 q 2740 155 2740 229 q 2764 90 2743 90 q 2905 328 2808 195 q 3072 478 3008 478 q 3139 363 3141 478 q 3013 52 3139 211 q 2850 -30 2935 -30 q 2810 -22 2827 -30 q 2708 -374 2772 -131 q 2687 -385 2703 -392 q 2640 -300 2640 -363 q 2726 8 2640 -193 q 2667 155 2667 59 q 2808 498 2667 294 q 2824 505 2813 505 m 2848 50 q 3031 199 2947 50 q 3078 357 3078 296 q 3054 387 3078 387 q 2844 66 2995 387 q 2848 50 2837 51 z "},"‹":{"ha":1124,"x_min":18,"x_max":1101,"o":"m 250 328 q 347 545 250 452 q 568 637 444 637 q 795 538 701 637 q 886 309 886 440 q 801 95 886 187 q 591 0 713 0 q 352 96 453 0 q 250 328 250 192 m 328 309 q 363 178 328 247 q 547 65 437 77 q 729 124 656 54 q 811 305 811 197 q 744 493 811 413 q 574 574 674 574 q 401 495 475 574 q 328 309 328 416 m 18 696 q 91 862 18 793 q 262 930 163 930 q 412 862 349 930 q 473 709 473 796 q 407 546 473 615 q 245 475 340 475 q 87 540 157 475 q 18 696 18 606 m 73 709 q 126 576 73 632 q 250 519 179 519 q 371 578 321 519 q 419 711 419 635 q 360 842 419 789 q 230 883 309 891 q 99 803 152 875 q 73 709 73 753 m 1101 702 q 1031 546 1101 612 q 873 481 962 481 q 711 552 779 481 q 646 715 646 621 q 707 868 646 802 q 857 936 770 936 q 1027 868 956 936 q 1101 702 1101 799 m 1045 715 q 1019 809 1045 760 q 888 889 966 881 q 758 848 810 897 q 699 718 699 795 q 747 584 699 641 q 869 526 798 526 q 992 582 939 526 q 1045 715 1045 638 z "},"›":{"ha":1124,"x_min":18,"x_max":1101,"o":"m 293 479 q 245 475 270 475 q 87 540 157 475 q 18 696 18 606 q 91 862 18 793 q 262 930 163 930 q 412 862 349 930 q 473 709 473 796 q 454 615 473 659 q 568 637 508 637 q 664 622 619 637 q 646 715 646 665 q 707 868 646 802 q 857 936 770 936 q 1027 868 956 936 q 1101 702 1101 799 q 1031 546 1101 612 q 873 481 962 481 q 837 484 854 481 q 886 309 886 405 q 801 95 886 187 q 591 0 713 0 q 352 96 453 0 q 250 328 250 192 q 293 479 250 410 z "},"€":{"ha":863,"x_min":-2,"x_max":850,"o":"m 104 460 l 104 441 q 104 410 104 415 l 46 410 q 13 387 30 410 q -2 353 -2 367 q 31 327 -2 327 l 115 327 q 260 64 144 164 q 510 -31 370 -31 q 844 73 665 -31 q 850 110 850 99 q 816 168 850 139 q 517 101 623 101 q 362 161 439 101 q 243 327 275 228 l 290 327 q 573 331 488 327 q 618 353 589 331 q 646 389 646 375 q 608 414 646 416 q 304 410 530 410 l 225 410 q 222 456 222 437 l 222 465 l 566 464 q 642 467 609 464 q 680 484 658 468 q 705 514 705 500 q 669 553 705 555 q 509 547 597 547 l 233 549 q 621 800 286 794 q 739 759 688 801 q 777 726 777 726 q 820 728 804 713 q 835 755 835 744 q 758 869 835 827 q 625 904 696 904 q 113 545 180 904 q 60 540 79 543 q 26 513 44 539 q 10 478 10 491 q 37 453 10 453 l 104 460 z "}}}
